<?xml version="1.0" standalone="no"?>
<!DOCTYPE svg PUBLIC "-//W3C//DTD SVG 20010904//EN"
 "http://www.w3.org/TR/2001/REC-SVG-20010904/DTD/svg10.dtd">
<svg version="1.0" xmlns="http://www.w3.org/2000/svg"
 width="719.000000pt" height="728.000000pt" viewBox="0 0 719.000000 728.000000"
 preserveAspectRatio="xMidYMid meet">
<metadata>
Created by potrace 1.13, written by Peter Selinger 2001-2015
</metadata>
<g transform="translate(0.000000,728.000000) scale(0.100000,-0.100000)"
fill="#000000" stroke="none">
<path d="M5140 5143 c-63 -8 -130 -25 -130 -33 0 -4 -21 -11 -47 -15 -31 -4
-62 -17 -86 -36 -20 -17 -42 -27 -47 -24 -11 7 -97 -31 -118 -52 -7 -7 -20
-13 -27 -13 -7 0 -22 -11 -33 -25 -13 -16 -26 -23 -36 -19 -11 4 -16 1 -16
-10 0 -9 -5 -16 -11 -16 -19 0 -69 -58 -69 -80 0 -18 -15 -25 -42 -21 -5 0 -8
-6 -8 -15 0 -9 -9 -27 -20 -41 -11 -14 -20 -34 -20 -44 0 -10 -4 -21 -10 -24
-5 -3 -10 -14 -10 -24 0 -27 -89 -211 -102 -211 -5 0 -8 -6 -8 -14 0 -7 -11
-39 -25 -70 -14 -31 -25 -70 -25 -86 0 -17 -4 -30 -9 -30 -5 0 -9 -15 -9 -32
0 -18 -7 -46 -16 -63 -8 -16 -12 -33 -7 -38 5 -5 6 -55 4 -112 -3 -68 -1 -105
6 -109 19 -12 12 -26 -14 -26 -14 0 -25 -4 -25 -9 0 -5 8 -8 17 -7 13 1 20
-12 29 -54 11 -54 11 -55 22 -27 17 39 21 60 32 157 12 112 25 154 59 193 16
17 31 42 35 55 4 12 12 22 17 22 5 0 9 8 9 18 1 25 31 107 68 183 18 37 32 71
32 75 0 9 25 38 109 129 41 44 48 48 120 60 133 22 151 24 151 14 0 -12 37
-12 45 1 11 18 52 11 58 -10 4 -17 0 -20 -31 -20 -27 0 -33 -3 -25 -11 7 -7
46 -11 103 -10 77 2 96 -1 125 -19 18 -11 36 -29 38 -38 4 -16 5 -16 6 1 0 9
4 17 9 18 4 0 19 3 33 5 16 3 31 -2 39 -11 7 -8 23 -15 36 -15 27 0 32 -21 9
-40 -19 -16 -19 -25 2 -50 21 -25 33 -26 33 -2 1 16 1 16 14 0 7 -10 22 -18
33 -18 27 0 35 -10 20 -28 -9 -12 -9 -16 1 -19 6 -3 12 -11 12 -19 0 -8 5 -14
10 -14 6 0 16 -11 22 -25 6 -14 17 -25 25 -25 7 0 13 -7 13 -15 0 -8 -5 -15
-10 -15 -6 0 -22 -11 -35 -25 -17 -16 -25 -20 -25 -10 0 20 -16 19 -24 0 -3
-8 0 -15 7 -15 7 0 -3 -14 -22 -31 -26 -24 -35 -28 -43 -18 -6 9 -6 5 -2 -12
5 -25 3 -27 -34 -34 -28 -4 -42 -12 -45 -26 -3 -12 -11 -17 -20 -13 -8 3 -17
-2 -20 -10 -5 -12 0 -16 17 -16 14 0 26 5 28 10 2 8 25 7 71 -2 l67 -13 0 -37
c0 -35 -2 -38 -29 -38 -26 0 -30 -4 -33 -32 -2 -24 -9 -34 -23 -36 -11 -2 -26
-11 -32 -20 -7 -8 -16 -13 -19 -9 -4 4 -14 -2 -21 -13 -12 -16 -21 -19 -48
-14 -28 5 -36 2 -51 -20 -9 -15 -22 -25 -28 -23 -5 2 -26 -7 -45 -20 -23 -16
-43 -22 -58 -18 -16 4 -25 -1 -34 -17 -10 -19 -12 -20 -21 -4 -6 10 -8 27 -5
38 8 28 -3 55 -14 37 -6 -10 -16 4 -32 42 -30 66 -54 81 -182 110 -144 33
-221 36 -277 10 -26 -11 -51 -21 -56 -21 -5 0 -19 -11 -32 -25 -37 -39 -16
-50 88 -48 86 2 153 -11 225 -41 21 -9 35 -20 33 -25 -3 -5 3 -16 14 -26 19
-17 19 -19 4 -37 -10 -10 -23 -18 -31 -18 -8 0 -11 -5 -7 -11 4 -7 -24 -9 -96
-5 -116 6 -169 -7 -235 -56 l-40 -30 90 5 c89 4 205 -8 205 -22 0 -21 -53 -34
-117 -28 -37 3 -77 2 -88 -2 -16 -6 -10 -11 30 -24 27 -10 60 -17 74 -17 14 0
33 -5 41 -10 12 -8 11 -10 -7 -10 -40 0 -36 -20 4 -21 21 0 32 -3 25 -6 -10
-4 -10 -8 -1 -19 17 -21 128 -16 115 5 -2 3 20 6 50 5 30 -1 54 2 54 7 0 4 8
10 18 13 9 4 34 30 55 60 20 30 51 60 67 68 17 7 30 20 30 29 0 48 92 15 98
-35 2 -15 -3 -35 -12 -45 -9 -9 -13 -26 -10 -38 3 -11 1 -30 -5 -41 -8 -16 -7
-21 4 -26 19 -7 19 -35 0 -42 -20 -8 -19 -21 3 -27 16 -4 16 -5 0 -6 -21 -1
-24 -27 -5 -34 6 -3 2 -6 -9 -6 -22 -1 -34 -19 -39 -58 -2 -11 -6 -30 -9 -40
-5 -15 0 -23 19 -31 31 -14 31 -26 0 -60 -23 -25 -31 -27 -110 -28 -47 0 -88
-4 -92 -7 -3 -4 -35 -7 -70 -7 -40 0 -63 -4 -63 -11 0 -25 -28 13 -33 44 -5
38 17 77 44 77 11 0 19 5 19 11 0 8 4 8 13 1 16 -13 78 -19 95 -8 19 12 14 34
-10 47 -13 7 -26 16 -29 21 -12 19 -169 14 -169 -5 0 -7 -21 -20 -48 -29 -31
-11 -69 -38 -109 -78 -34 -33 -66 -60 -70 -60 -4 0 -22 -13 -39 -29 -23 -22
-34 -27 -42 -19 -16 16 -26 -14 -18 -52 3 -17 1 -30 -4 -30 -6 0 -10 -22 -10
-50 0 -46 4 -53 49 -100 27 -27 56 -50 65 -50 9 0 16 -6 16 -14 0 -8 8 -13 17
-12 12 1 18 -7 19 -21 2 -37 44 -74 44 -40 0 7 10 13 23 12 31 -1 67 -15 67
-25 0 -13 38 -32 80 -41 37 -8 90 -25 129 -43 13 -6 34 -9 47 -8 13 2 24 -1
24 -7 0 -5 10 -13 23 -16 56 -16 78 -29 91 -56 8 -16 10 -31 5 -35 -5 -3 -9 0
-9 5 0 6 -18 11 -40 11 -22 0 -40 -4 -40 -9 0 -5 -12 -11 -27 -14 -25 -5 -28
-10 -28 -44 0 -42 32 -143 45 -143 4 0 7 -18 6 -40 0 -25 -5 -40 -13 -40 -7 0
-13 -6 -13 -13 0 -8 -16 -27 -35 -43 -19 -16 -33 -35 -30 -41 5 -14 -21 -18
-29 -5 -3 5 -25 9 -50 9 -37 1 -45 -2 -50 -20 -5 -18 -8 -20 -16 -7 -8 12 -13
13 -30 3 -11 -7 -33 -13 -48 -13 -30 0 -101 46 -102 66 0 20 -42 65 -56 60 -8
-3 -11 0 -7 10 3 9 -1 14 -12 14 -13 0 -16 6 -12 23 3 12 -3 35 -14 52 -10 17
-25 45 -33 63 -11 24 -21 32 -40 32 -31 0 -33 14 -5 33 15 11 17 16 7 21 -10
5 -10 7 0 12 19 9 14 24 -8 24 -15 0 -20 7 -20 29 0 32 -19 54 -21 24 -1 -13
-3 -11 -9 7 -8 25 -8 25 -9 2 -1 -32 -21 -17 -22 16 -1 27 -1 27 -8 -3 -6 -28
-10 -30 -56 -35 -36 -4 -49 -9 -47 -19 2 -8 -3 -18 -10 -22 -16 -11 -41 -12
-35 -1 3 4 1 16 -4 27 -7 18 -8 18 -8 -4 -1 -33 -14 -18 -27 32 -7 28 -7 51 0
69 11 30 -7 63 -30 54 -7 -3 -16 4 -19 14 -7 21 -47 36 -65 25 -6 -4 -20 1
-30 10 -11 10 -26 15 -33 12 -8 -3 -19 -1 -25 5 -8 8 -6 14 10 22 12 6 23 17
26 25 3 8 0 11 -6 7 -6 -3 -13 -2 -17 4 -6 10 7 14 34 10 9 -1 12 4 7 15 -3 9
-6 18 -6 19 0 2 -12 1 -27 -2 -22 -4 -25 -2 -19 13 5 14 2 17 -19 13 -17 -4
-25 -1 -25 8 0 8 -4 14 -9 14 -16 0 -22 33 -8 47 8 8 39 17 70 20 54 6 57 5
57 -17 0 -22 3 -23 68 -18 77 6 92 -3 92 -54 0 -18 7 -46 15 -62 9 -16 14 -39
13 -50 -2 -17 3 -22 32 -24 51 -5 60 -17 60 -78 0 -37 4 -54 13 -54 20 0 38
38 28 58 -19 36 -29 68 -29 91 -1 14 -6 37 -13 53 -8 20 -9 70 -4 170 13 272
14 253 -20 256 -50 6 -63 42 -15 42 33 0 52 26 31 40 -9 5 -8 9 4 14 9 3 13
11 10 17 -5 7 -13 5 -24 -5 -13 -12 -34 -15 -89 -12 -70 4 -72 4 -72 -19 0
-18 -4 -22 -20 -18 -11 3 -18 8 -16 12 3 4 -10 13 -27 20 -18 8 -38 21 -44 29
-9 10 -13 11 -13 4 0 -10 -5 -10 -21 -1 -13 7 -19 17 -16 29 2 10 1 24 -4 31
-5 9 -9 6 -14 -12 -5 -21 -16 -28 -57 -38 -40 -9 -53 -9 -59 1 -12 19 0 29 27
22 28 -7 54 10 54 37 0 22 -8 23 -32 5 -10 -7 -14 -17 -10 -22 4 -4 -1 -3 -10
4 -13 11 -20 11 -37 0 -12 -7 -21 -17 -21 -22 0 -4 -11 -6 -25 -4 -14 3 -25 1
-25 -4 0 -5 13 -11 30 -14 16 -4 27 -11 24 -16 -4 -5 -17 -7 -30 -4 -17 5 -26
1 -34 -14 -12 -23 -42 -28 -34 -5 4 10 0 15 -11 15 -9 0 -23 6 -30 14 -12 12
-7 13 32 11 43 -3 45 -2 40 21 -4 22 3 29 26 25 11 -2 9 17 -3 21 -19 6 8 31
34 31 31 -1 29 6 -4 12 -12 2 -29 -2 -37 -10 -8 -8 -26 -17 -41 -21 -15 -3
-34 -9 -42 -13 -8 -5 -30 -6 -48 -3 -27 4 -34 1 -39 -16 -4 -17 -9 -19 -27
-12 -13 4 -29 4 -37 0 -7 -5 -25 -6 -38 -3 -19 5 -23 3 -18 -10 4 -11 2 -14
-9 -10 -16 6 -20 -12 -4 -22 18 -11 11 -35 -10 -35 -11 0 -20 -6 -20 -14 0
-20 -33 -26 -55 -10 -15 11 -20 11 -27 1 -5 -8 -8 -8 -8 -1 0 7 -13 10 -30 8
-26 -3 -30 -1 -30 22 0 17 -4 23 -12 18 -6 -4 -35 -8 -64 -8 -43 -1 -54 2 -58
17 -2 9 -9 17 -16 17 -6 0 -9 -4 -5 -9 3 -5 1 -12 -4 -15 -5 -3 -12 4 -16 17
-6 19 -8 19 -12 5 -5 -21 -24 -23 -41 -6 -9 9 -12 9 -12 -1 0 -8 -12 -11 -37
-9 -29 2 -38 7 -37 21 1 13 -6 17 -37 17 -32 0 -39 -3 -39 -20 0 -11 -5 -20
-11 -20 -5 0 -7 5 -4 10 3 6 1 10 -5 10 -6 0 -17 15 -25 33 l-14 32 -1 -32 c0
-30 -3 -33 -31 -33 -35 0 -36 23 -1 28 26 4 27 8 8 27 -10 11 -22 11 -55 3
-33 -8 -41 -15 -41 -34 0 -12 5 -26 10 -29 6 -3 10 -12 10 -18 0 -7 -7 -4 -14
6 -7 9 -19 17 -25 17 -7 0 -9 5 -6 10 3 6 0 10 -7 10 -7 1 -20 16 -29 35 -13
28 -14 35 -2 39 7 3 13 11 13 18 0 8 -3 9 -8 3 -6 -9 -53 -12 -87 -7 -18 3 47
32 71 32 21 0 67 32 60 42 -2 1 -6 15 -10 30 -5 22 -2 27 16 31 13 2 -5 5 -39
6 -52 1 -61 -2 -57 -14 4 -9 -1 -17 -12 -21 -31 -11 -43 -25 -37 -40 3 -8 11
-14 19 -14 8 0 14 -7 14 -16 0 -11 -5 -14 -16 -10 -24 9 -34 -2 -25 -27 12
-32 3 -47 -29 -47 -17 0 -34 -8 -40 -17 -11 -17 -11 -17 -6 0 5 16 2 18 -24
12 -19 -4 -30 -3 -30 4 0 6 5 11 10 11 6 0 10 5 10 10 0 6 -13 10 -30 10 -20
0 -30 -5 -30 -15 0 -8 -7 -15 -15 -15 -8 0 -15 8 -15 19 0 14 10 20 43 26 23
4 35 10 27 13 -8 3 -21 13 -28 24 -7 10 -20 18 -28 18 -8 0 -17 13 -20 30 -4
16 -11 28 -18 27 -6 -1 -10 9 -8 23 1 15 -7 36 -23 54 -14 16 -25 39 -25 51 0
30 -57 95 -68 77 -6 -9 -12 -5 -21 14 -11 25 -10 26 4 14 8 -7 19 -10 22 -6 4
4 2 11 -5 15 -7 4 -14 18 -15 29 -1 12 -8 22 -17 22 -13 0 -13 1 0 10 12 8 10
10 -9 10 -13 0 -29 -8 -36 -17 -10 -14 -8 -20 11 -38 30 -28 19 -41 -39 -47
-41 -5 -47 -3 -47 13 0 25 -8 24 -29 -2 -15 -19 -22 -20 -47 -12 -16 5 -34 20
-40 32 -10 20 -12 21 -18 4 -4 -10 -7 -19 -7 -20 0 -2 -4 -16 -9 -33 -7 -26
-6 -30 10 -30 10 0 22 -5 25 -10 4 -6 16 -8 26 -5 11 4 26 1 34 -5 13 -11 14
-7 9 21 -4 24 -3 30 4 20 5 -7 14 -11 20 -7 6 3 13 2 16 -2 3 -5 17 -7 32 -4
19 3 22 7 12 13 -9 6 -3 9 18 9 17 0 34 -3 38 -7 4 -5 12 -8 18 -8 12 0 40
-77 31 -85 -3 -3 -8 0 -10 7 -3 8 -13 9 -36 2 -17 -5 -41 -6 -52 -3 -19 5 -19
4 -2 -7 11 -6 30 -9 43 -6 13 2 24 1 24 -3 0 -12 41 -4 50 11 7 11 12 11 22 1
9 -9 9 -12 -5 -12 -9 0 -17 -4 -17 -10 0 -5 -9 -10 -20 -10 -11 0 -20 -5 -20
-11 0 -5 5 -7 11 -3 12 7 59 -15 59 -28 0 -5 -4 -7 -8 -4 -4 2 -14 1 -21 -4
-10 -6 -6 -11 15 -21 16 -8 30 -23 32 -34 2 -11 9 -26 15 -34 16 -19 17 -41 3
-41 -7 0 -24 20 -37 45 l-24 45 -18 -23 c-15 -19 -18 -20 -27 -6 -6 11 -18 15
-35 11 -15 -2 -25 0 -25 7 0 6 5 11 12 11 6 0 8 3 5 6 -4 4 -12 3 -19 -3 -7
-5 -19 -8 -25 -7 -7 1 -21 2 -30 3 -16 2 -16 4 2 12 16 8 15 8 -8 4 -34 -7
-70 3 -62 16 4 5 -10 9 -30 9 -30 0 -36 -3 -31 -16 3 -9 6 -17 6 -18 0 -2 11
-1 25 2 21 3 25 0 25 -18 0 -18 -3 -20 -14 -11 -11 9 -15 9 -19 -1 -3 -8 -6
-8 -6 -2 -1 8 -12 9 -33 5 -23 -5 -33 -13 -31 -25 1 -12 -4 -15 -14 -12 -8 3
-17 6 -19 6 -3 0 -3 4 1 9 3 5 1 12 -5 16 -5 3 -10 2 -10 -3 0 -5 -8 -18 -18
-30 -18 -20 -18 -20 -30 -1 -16 25 -15 32 4 25 8 -3 12 -2 9 3 -3 5 0 11 7 14
7 2 1 2 -15 0 -16 -3 -27 0 -27 7 0 7 -10 26 -22 43 -13 18 -21 34 -19 37 3 3
-7 9 -22 14 -20 7 -31 6 -44 -6 -24 -21 -80 -13 -88 13 -9 28 2 39 41 39 24 0
34 5 34 15 0 8 7 15 15 15 8 0 15 6 15 14 0 8 14 15 35 18 20 2 35 0 35 -7 0
-5 4 -4 8 3 7 9 16 10 41 1 24 -9 39 -9 57 0 32 14 23 27 -29 43 -23 7 -47 19
-54 28 -11 13 -12 12 -13 -7 0 -29 -39 -40 -89 -25 -21 7 -37 8 -39 2 -2 -5
-13 -5 -27 0 -12 5 -32 6 -43 3 -11 -2 -23 0 -26 6 -11 17 -22 13 -34 -14 -9
-20 -19 -25 -47 -25 -24 0 -35 5 -35 15 0 8 -4 15 -10 15 -5 0 -9 10 -9 23 1
16 2 18 6 5 5 -20 23 -24 23 -5 0 6 -6 24 -13 38 -9 16 -11 33 -6 47 11 28 16
28 21 -2 4 -18 1 -23 -10 -18 -10 3 -13 1 -8 -6 10 -16 35 -15 42 2 3 8 13 12
23 9 11 -3 21 2 24 11 5 11 1 16 -13 16 -22 0 -30 34 -15 68 7 15 16 21 28 18
13 -3 17 0 13 10 -8 21 4 17 28 -10 26 -28 58 -42 49 -20 -3 7 -11 14 -17 14
-7 0 -18 11 -24 24 -9 19 -8 25 4 30 8 3 14 15 14 26 0 16 6 20 35 20 19 0 35
5 35 10 0 6 9 10 20 10 11 0 20 -4 20 -10 0 -5 15 -10 33 -9 96 2 141 -35 72
-60 -19 -7 -35 -19 -35 -27 0 -8 -8 -14 -17 -14 -9 0 -14 -3 -11 -6 8 -8 127
17 134 27 3 5 0 9 -5 9 -6 0 -11 4 -11 10 0 5 3 9 8 9 4 -1 16 -1 27 0 18 2
18 3 -5 16 -22 12 -23 14 -7 20 18 8 25 65 7 65 -5 0 -10 5 -10 11 0 7 -11 21
-23 33 -19 18 -28 20 -46 12 -28 -12 -55 9 -31 24 11 7 5 10 -23 10 -21 0 -47
5 -58 10 -11 7 -19 7 -19 1 0 -5 6 -12 13 -14 9 -4 9 -6 0 -6 -6 -1 -14 3 -17
8 -3 5 -24 2 -47 -6 -23 -7 -47 -12 -53 -9 -6 2 -3 5 7 5 9 1 17 6 17 11 0 6
8 10 18 11 13 0 12 2 -6 9 -13 6 -32 6 -45 1 -14 -5 -30 -5 -40 0 -14 8 -17 6
-17 -11 0 -15 -6 -20 -25 -20 -19 0 -23 4 -19 18 4 10 3 13 -3 6 -8 -12 -20
-13 -138 -16 -52 -1 -77 3 -97 16 -17 11 -28 13 -33 7 -9 -16 -64 -13 -81 4
-26 26 -95 39 -129 24 -16 -7 -57 -12 -91 -12 -52 1 -62 -2 -70 -21 -5 -11
-24 -25 -42 -31 -17 -5 -32 -14 -32 -21 0 -17 -30 -26 -45 -14 -9 7 -16 6 -24
-4 -7 -8 -18 -13 -26 -10 -7 3 -16 1 -19 -5 -4 -6 -13 -8 -20 -5 -8 3 -17 1
-21 -5 -3 -6 -24 -11 -46 -11 -21 0 -48 -6 -59 -12 -16 -10 -24 -10 -41 0 -14
9 -24 10 -33 3 -7 -6 -24 -8 -39 -5 -15 2 -27 0 -27 -6 0 -5 5 -10 10 -10 6 0
10 -7 10 -15 0 -8 -7 -15 -15 -15 -9 0 -15 -6 -14 -12 5 -40 -26 -53 -51 -23
-11 13 -10 18 6 30 10 8 14 15 8 15 -11 0 -12 35 -1 46 4 4 7 11 7 15 0 13
-33 -3 -53 -25 -15 -17 -20 -18 -28 -6 -7 11 -8 6 -4 -17 6 -29 4 -33 -14 -33
-19 0 -21 -6 -21 -70 0 -62 2 -69 18 -63 9 3 24 12 32 18 19 15 22 16 145 21
55 2 102 4 105 5 3 0 24 0 48 -1 32 -1 47 3 58 17 9 11 12 13 9 3 -4 -13 6
-14 65 -12 57 3 71 1 76 -12 3 -9 14 -16 23 -17 10 0 11 -2 4 -6 -7 -2 -13
-10 -13 -16 1 -7 11 0 23 14 26 30 51 41 64 28 5 -5 22 -5 41 0 20 6 32 6 32
0 0 -5 21 -9 46 -9 27 0 43 4 39 10 -11 18 56 11 84 -9 27 -20 28 -20 57 0 35
23 84 26 84 4 0 -22 27 -19 33 4 11 43 -31 65 -73 39 -17 -11 -22 -10 -29 1
-6 9 -19 12 -42 7 -40 -7 -71 -9 -119 -6 l-35 2 35 10 c19 5 58 11 85 12 28 2
67 8 87 14 21 5 35 6 32 1 -3 -5 14 -9 36 -9 33 0 41 -3 37 -14 -4 -11 1 -14
20 -13 14 1 28 -4 30 -10 3 -7 -2 -13 -11 -13 -9 0 -16 -4 -16 -10 0 -12 47
-13 54 -1 3 5 14 7 24 4 9 -2 36 0 60 5 24 6 42 6 42 1 0 -5 -12 -10 -27 -10
-20 -1 -22 -3 -9 -6 15 -4 16 -7 5 -13 -7 -5 -21 -35 -29 -67 -17 -61 -12 -57
-102 -77 -16 -4 -28 -11 -28 -17 0 -6 7 -9 15 -6 8 4 17 3 19 -2 3 -4 19 -6
37 -3 22 3 30 1 25 -7 -4 -6 -12 -9 -17 -6 -5 3 -6 -2 -2 -11 4 -12 3 -15 -5
-10 -8 5 -10 2 -6 -8 3 -9 1 -16 -5 -16 -6 0 -11 -8 -11 -17 0 -13 -3 -14 -12
-5 -7 7 -21 12 -31 12 -19 0 -19 -1 -2 -26 11 -17 13 -29 7 -33 -6 -3 -12 -22
-14 -41 -3 -35 -22 -59 -45 -60 -7 0 -10 6 -7 14 5 14 -10 16 -31 5 -5 -3 -27
-5 -47 -3 -21 1 -38 -2 -38 -6 0 -5 13 -8 29 -8 15 1 33 -2 39 -6 16 -10 7
-39 -14 -44 -51 -11 -137 0 -158 21 -19 18 -31 23 -21 8 3 -5 1 -12 -5 -16
-13 -8 -13 28 0 41 14 14 2 44 -15 38 -7 -3 -20 5 -28 17 -11 16 -27 22 -56
23 -22 0 -35 3 -30 7 6 3 1 9 -11 12 -17 4 -21 11 -17 27 5 18 2 20 -16 13
-12 -4 -33 -7 -47 -7 -29 0 -45 -17 -27 -28 7 -4 22 -8 35 -8 12 0 22 -4 22
-10 0 -5 -9 -10 -20 -10 -13 0 -20 -7 -20 -20 0 -15 -7 -20 -28 -20 -16 0 -37
-9 -47 -20 -14 -15 -21 -17 -32 -9 -10 9 -13 8 -13 -2 0 -8 -9 -20 -20 -27
-18 -11 -21 -10 -29 11 -5 14 -17 27 -25 30 -22 9 -48 -3 -42 -18 2 -7 -2 -21
-10 -32 -8 -11 -13 -12 -12 -4 2 7 -3 16 -9 18 -7 3 -13 0 -13 -6 0 -6 -8 -11
-18 -11 -9 0 -22 -10 -27 -22 -6 -13 -20 -24 -33 -26 -12 -2 -22 -7 -22 -12 0
-5 -9 -14 -20 -20 -16 -9 -22 -6 -35 20 l-16 30 33 1 c24 1 27 3 10 6 -12 2
-22 8 -22 13 0 13 42 40 62 40 10 0 18 7 18 15 0 9 9 19 19 23 20 7 21 9 21
37 0 8 9 15 20 15 11 0 19 5 17 11 -1 6 14 19 33 30 29 16 31 19 12 19 -12 0
-22 5 -22 10 0 6 5 10 10 10 6 0 10 5 10 10 0 6 -8 5 -20 -2 -11 -7 -20 -21
-20 -31 0 -15 -5 -17 -29 -12 -21 4 -30 2 -35 -10 -4 -12 -17 -14 -63 -11 -39
3 -53 2 -43 -5 11 -7 8 -8 -11 -3 -15 3 -30 1 -34 -5 -3 -6 -11 -9 -16 -6 -5
4 -9 0 -9 -9 0 -11 12 -14 48 -13 41 2 47 0 44 -17 -2 -11 1 -15 7 -11 6 3 11
2 11 -2 0 -14 -38 -33 -54 -27 -10 4 -14 -2 -12 -20 0 -14 4 -26 9 -26 4 0 7
-4 7 -10 0 -11 -28 -9 -47 3 -7 5 -25 -1 -43 -14 -22 -17 -30 -31 -30 -55 0
-32 0 -32 45 -26 30 3 45 1 45 -7 0 -6 -7 -14 -15 -17 -8 -4 -15 -12 -15 -20
0 -9 -10 -12 -30 -10 -16 2 -30 -1 -30 -5 0 -5 11 -9 25 -9 14 0 25 -4 25 -10
0 -5 -9 -10 -19 -10 -23 0 -31 -20 -30 -68 2 -31 3 -32 6 -9 2 15 7 28 11 28
4 1 25 2 47 3 22 1 45 4 50 8 19 11 165 5 165 -8 0 -15 -23 -24 -61 -24 -19 0
-29 5 -29 15 0 19 -14 19 -34 -1 -10 -9 -24 -13 -35 -9 -16 5 -19 1 -18 -15 1
-16 8 -20 32 -19 29 1 29 1 5 9 -24 8 -24 8 -3 9 13 1 28 -8 35 -19 9 -14 24
-20 50 -20 21 0 38 -4 38 -10 0 -10 -21 -14 -48 -11 -6 1 -12 -7 -12 -19 0
-15 6 -20 24 -20 28 0 45 -35 27 -53 -6 -6 -11 -21 -11 -34 0 -23 -23 -32 -35
-13 -3 6 2 10 12 10 14 0 12 5 -11 25 -24 21 -27 27 -16 40 11 14 10 17 -8 22
-12 3 -22 10 -22 15 0 5 5 6 10 3 6 -3 10 1 10 10 0 12 -6 14 -27 9 -16 -4
-30 -10 -33 -15 -3 -4 -14 -9 -25 -11 -17 -2 -20 3 -20 35 0 31 -3 37 -22 37
-46 0 -53 -9 -53 -73 0 -60 0 -60 19 -39 20 24 37 28 43 10 3 -8 14 -5 35 10
34 24 43 27 43 14 0 -5 -10 -14 -22 -20 -15 -7 -18 -11 -8 -11 9 -1 21 4 27
10 14 14 33 3 33 -19 0 -12 -9 -18 -27 -20 -14 -1 -29 -5 -32 -8 -3 -4 6 -4
21 -2 16 3 28 1 28 -3 0 -5 -6 -9 -12 -9 -9 0 -8 -4 2 -10 10 -7 1 -8 -30 -4
-49 8 -52 8 -92 6 l-28 -2 0 -151 c0 -102 3 -148 10 -144 6 4 17 2 24 -4 11
-9 52 -18 95 -20 7 -1 11 -7 7 -16 -3 -8 -1 -15 4 -15 22 0 8 -28 -15 -33 -20
-3 -29 1 -40 22 -10 19 -14 21 -15 9 0 -10 -4 -18 -9 -18 -5 0 -12 -11 -15
-25 -5 -21 -10 -24 -24 -16 -15 8 -18 5 -20 -18 -2 -25 0 -27 28 -23 25 4 30
1 30 -16 0 -27 -15 -35 -30 -17 -7 8 -16 15 -21 15 -14 0 -11 -154 3 -168 8
-8 8 -15 -1 -25 -8 -11 -11 -153 -11 -542 1 -515 1 -527 20 -532 20 -5 28 -33
10 -33 -5 0 -10 -7 -10 -15 0 -8 -4 -15 -10 -15 -7 0 -10 -228 -10 -665 l0
-665 639 0 c559 0 640 2 645 15 3 8 10 15 16 15 5 0 10 -7 10 -15 0 -13 141
-15 1205 -15 l1205 0 14 34 c18 43 38 57 35 24 -5 -54 -2 -58 47 -58 40 0 74
16 74 35 0 4 7 13 15 21 13 14 13 19 -1 46 -18 34 -63 77 -81 78 -32 0 -59
167 -37 224 6 15 7 15 18 0 11 -14 15 -6 30 52 28 108 32 119 42 114 5 -3 7
-13 6 -23 -4 -21 25 -34 41 -18 18 18 39 13 33 -7 -4 -11 2 -28 14 -42 18 -20
23 -22 30 -10 6 8 10 20 10 27 0 6 5 15 10 18 12 7 80 -16 80 -27 0 -4 7 -8
16 -8 14 0 15 -7 9 -46 -5 -35 -3 -45 7 -43 27 3 38 -1 38 -17 0 -13 3 -14 14
-5 34 28 25 -38 -18 -134 -7 -16 -16 -46 -19 -65 -3 -19 -3 -29 0 -22 4 10 8
10 19 1 18 -15 18 -33 0 -26 -10 4 -12 0 -9 -14 3 -11 0 -19 -6 -19 -7 0 -9
-5 -4 -13 4 -6 8 -19 9 -27 3 -50 4 -51 31 -47 29 4 30 7 93 202 12 39 35 95
50 125 15 30 38 86 50 123 19 55 21 72 11 93 -15 34 -14 74 3 74 19 0 90 269
81 308 -7 34 20 54 30 22 3 -10 19 -23 36 -29 39 -13 45 -32 29 -95 -7 -28
-16 -67 -20 -86 -5 -19 -20 -79 -34 -134 -14 -54 -26 -100 -26 -102 0 -2 -6
-4 -14 -4 -18 0 -47 -92 -61 -200 -7 -48 -40 -172 -55 -205 -17 -38 -29 -95
-19 -95 5 0 9 7 9 16 0 9 7 32 16 52 9 21 26 62 39 92 14 30 26 64 27 75 4 27
32 25 36 -3 2 -12 -6 -42 -17 -65 -23 -48 -53 -167 -42 -167 5 0 16 29 26 65
9 36 22 65 27 65 10 0 8 -22 -8 -97 -5 -26 -3 -33 9 -33 16 0 31 52 41 142 7
61 28 128 41 129 5 1 17 2 25 3 8 1 22 -5 31 -12 9 -7 25 -14 35 -16 29 -6 92
-35 98 -44 3 -5 2 -12 -2 -16 -4 -4 -7 -26 -8 -49 0 -23 -4 -63 -9 -89 l-8
-48 32 0 c30 0 31 1 31 44 0 25 5 48 10 51 11 7 14 -5 11 -57 l-3 -38 85 0
c80 0 84 1 95 25 7 14 12 33 12 41 0 23 23 26 64 9 21 -9 46 -13 56 -10 21 7
31 -13 23 -44 -5 -21 -3 -21 173 -21 l179 0 1 26 c1 14 9 33 18 43 9 10 16 22
16 28 0 6 6 16 13 22 8 6 13 27 12 48 -2 40 9 73 25 73 6 0 9 -3 9 -8 -3 -17
2 -48 10 -60 6 -11 15 -9 43 6 19 11 68 27 109 35 41 9 87 20 102 26 16 6 29
11 30 11 2 0 1 -19 -1 -41 -4 -40 12 -114 30 -134 4 -5 8 -23 8 -39 0 -38 -11
-25 -34 37 -25 66 -32 52 -9 -17 l18 -56 134 0 c126 0 136 1 159 23 l24 22 -6
-22 -7 -23 220 0 c212 0 221 1 221 19 0 11 -4 31 -10 45 -10 27 10 74 54 125
l21 24 -26 -7 c-20 -4 -29 -1 -33 11 -9 23 -2 27 57 29 86 2 129 33 92 64 -8
7 -15 8 -15 2 0 -13 -53 -23 -89 -16 -29 6 -45 32 -32 51 5 9 44 19 101 27 9
1 21 5 27 9 14 9 43 -18 43 -40 0 -9 6 -13 14 -10 32 12 37 -19 34 -177 l-3
-156 46 0 46 0 -4 121 c-3 97 -2 119 9 113 7 -4 5 2 -4 13 -21 23 -24 66 -5
81 6 5 22 13 35 16 20 7 22 4 22 -34 0 -27 -5 -43 -15 -46 -8 -4 -15 -16 -15
-28 0 -25 21 -76 32 -76 4 0 5 -7 1 -16 -3 -8 0 -27 8 -40 10 -20 10 -29 1
-44 -7 -11 -12 -29 -12 -40 0 -17 7 -20 41 -20 l41 0 -7 175 c-4 110 -4 175 2
175 10 0 26 -174 27 -288 l1 -62 43 0 42 0 0 275 c0 233 -2 275 -14 275 -26 0
-29 21 -7 44 19 20 21 34 21 163 0 104 -3 143 -12 146 -10 4 -10 6 0 6 8 1 12
23 12 74 0 71 -1 72 -35 94 -41 27 -55 29 -55 7 0 -8 -4 -13 -9 -10 -5 3 -7
15 -4 26 7 26 -24 53 -102 89 -60 28 -185 116 -185 130 0 11 34 41 47 41 5 0
15 11 21 25 6 14 17 25 24 25 13 -1 61 -28 112 -64 15 -10 30 -16 33 -12 4 4
-2 9 -13 12 -10 3 -28 19 -39 37 -28 45 -28 48 -12 41 22 -8 60 15 53 32 -11
29 13 12 87 -63 l77 -78 0 229 0 228 -24 -4 c-15 -3 -27 2 -35 14 -12 19 -41
25 -41 9 0 -13 -74 -5 -103 11 -12 7 -24 13 -27 13 -3 1 -22 9 -44 18 -45 20
-49 21 -41 7 9 -14 -48 -13 -63 2 -8 8 -12 8 -12 1 0 -7 -19 -10 -56 -7 -34 2
-53 0 -49 -6 3 -6 -1 -7 -9 -4 -9 3 -13 10 -10 15 3 5 0 9 -5 9 -6 0 -11 -7
-11 -15 0 -8 4 -15 9 -15 12 0 221 -199 221 -210 0 -5 -9 -6 -19 -3 -11 3 -28
-4 -40 -16 -12 -12 -25 -21 -30 -21 -5 0 -11 -7 -15 -15 -7 -21 -28 -19 -53 4
-12 11 -23 18 -26 15 -2 -3 -43 20 -91 50 -47 31 -91 56 -98 57 -7 0 -3 5 10
12 14 6 26 7 30 1 10 -13 49 -34 65 -34 7 0 28 -11 47 -24 19 -13 46 -26 60
-30 22 -6 21 -5 -5 10 -16 9 -42 27 -57 39 -14 12 -55 37 -90 54 -69 35 -104
58 -97 65 6 6 146 -61 154 -74 3 -6 20 -17 37 -26 29 -15 33 -15 43 -1 9 13
14 14 23 5 7 -7 12 -9 12 -4 0 4 -7 14 -15 22 -11 11 -15 12 -15 3 0 -8 -5 -6
-13 5 -7 10 -27 19 -43 20 -30 3 -80 25 -56 26 7 0 10 5 6 11 -3 6 -1 15 6 19
17 10 4 29 -28 42 -15 6 -29 12 -32 12 -3 1 -17 14 -32 29 -28 28 -50 36 -45
16 1 -6 -3 -13 -9 -16 -12 -4 -28 49 -25 80 2 10 -3 25 -10 33 -6 8 -10 17 -7
19 9 9 38 -7 38 -20 0 -16 27 -45 41 -45 6 0 7 5 3 11 -3 6 0 15 7 20 18 11
42 12 35 1 -3 -5 14 -6 37 -3 23 3 56 5 72 3 140 -12 186 -19 197 -30 14 -14
-9 -14 -212 3 -76 7 -87 6 -100 -11 -9 -10 -10 -15 -2 -10 6 4 12 3 12 -3 0
-19 48 -25 235 -28 240 -3 271 -5 268 -21 -2 -6 5 -12 15 -13 11 0 12 -2 4 -6
-20 -8 5 -32 27 -26 10 3 21 0 25 -5 3 -5 16 -7 30 -5 24 5 24 6 25 129 1 95
-2 123 -11 120 -7 -3 -47 -7 -88 -10 -68 -5 -73 -4 -56 9 11 8 28 15 37 15 10
0 24 7 33 15 8 9 17 15 18 14 2 -1 13 1 26 5 20 7 21 10 10 23 -11 14 -10 15
10 9 21 -7 22 -5 22 57 0 43 -4 67 -12 70 -10 4 -10 6 0 6 9 1 12 27 12 96 0
78 -3 95 -15 95 -8 0 -15 5 -15 11 0 6 7 9 15 5 24 -9 21 79 -2 89 -17 7 -16
8 2 15 17 7 17 9 3 9 -22 1 -39 -29 -31 -57 6 -26 -4 -72 -16 -72 -6 0 -12 10
-14 23 l-4 22 -2 -22 c-1 -21 -6 -23 -53 -23 -66 0 -98 -9 -98 -26 0 -32 -69
-36 -124 -7 -36 20 -40 21 -83 29 -26 5 -33 3 -33 -10 0 -11 -9 -16 -27 -16
-24 0 -25 1 -11 18 13 14 16 58 4 69 -2 3 -21 -3 -42 -12 -30 -12 -39 -13 -45
-3 -5 7 -12 13 -16 13 -17 1 -103 41 -103 48 0 5 -5 5 -10 2 -6 -4 -13 7 -16
24 -4 17 -10 31 -15 31 -5 0 -9 7 -9 15 0 9 6 12 16 8 13 -5 15 -2 10 14 -10
32 27 36 58 8 33 -30 63 -40 81 -25 19 15 11 30 -13 24 -9 -3 -28 -1 -42 5
-22 8 -18 10 25 10 28 0 61 -6 74 -13 l23 -13 -22 -6 c-36 -9 -13 -27 35 -27
33 0 47 -5 55 -19 8 -15 20 -19 57 -19 27 0 56 -3 66 -7 13 -6 17 -2 17 18 0
14 7 33 16 41 14 15 12 16 -25 16 -22 0 -42 -4 -45 -9 -7 -11 -96 -11 -96 1 0
4 6 8 13 8 8 0 7 3 -3 9 -8 6 -18 7 -22 5 -4 -3 -8 -1 -8 5 0 6 15 7 35 4 36
-6 41 0 29 32 -4 9 -10 12 -13 7 -11 -16 -79 -22 -85 -7 -3 8 -23 19 -45 25
-43 11 -53 25 -23 33 9 3 -4 5 -30 6 -86 2 -52 21 37 21 47 0 85 -2 85 -5 0
-2 -15 -9 -32 -14 -32 -10 -31 -10 14 -9 26 1 50 -1 54 -5 4 -4 16 -4 28 -1
12 3 33 6 48 7 34 2 41 21 10 25 -26 4 -20 22 8 22 10 0 20 5 22 10 2 7 16 5
40 -5 43 -17 62 -19 53 -5 -4 6 -10 8 -15 5 -4 -3 -14 3 -21 11 -12 15 -10 16
21 9 46 -9 110 -37 110 -47 0 -4 17 -8 38 -8 25 0 33 3 23 9 -8 5 -20 7 -28 4
-7 -3 -13 -1 -13 4 0 5 13 14 30 20 26 10 29 14 21 35 -6 16 -17 24 -40 26
-38 4 -45 38 -8 45 16 3 13 5 -11 6 -26 1 -34 -4 -42 -23 -9 -23 -9 -24 -54
-9 -33 11 -46 21 -46 34 0 11 -6 19 -13 19 -8 0 -28 7 -45 16 -24 11 -36 13
-52 4 -11 -6 -20 -13 -20 -15 0 -2 25 -16 56 -31 30 -14 54 -27 52 -29 -2 -2
-28 0 -58 4 -38 5 -54 11 -52 20 2 10 -5 12 -24 7 -15 -4 -63 -7 -106 -7 -43
0 -78 -4 -78 -9 0 -12 -57 -12 -85 0 -23 10 -14 13 36 10 21 -1 41 5 48 14 7
8 19 12 27 9 8 -3 14 0 14 6 0 14 -122 15 -135 2 -6 -6 -15 -4 -22 4 -27 29
19 36 170 28 78 -5 87 -8 87 -25 0 -14 5 -18 16 -14 9 3 22 6 30 6 17 0 8 28
-18 53 -10 10 -18 19 -18 21 0 8 78 -12 111 -28 20 -9 50 -16 65 -14 24 3 29
-1 28 -19 0 -18 5 -23 23 -23 13 0 23 4 23 9 0 10 150 2 170 -10 11 -6 8 -8
-13 -9 -16 0 -26 -4 -22 -10 9 -14 53 -12 58 3 3 9 7 9 20 -2 16 -12 17 -6 17
74 l0 87 -25 -6 c-14 -4 -25 -2 -25 3 0 14 28 33 40 26 6 -4 10 10 10 40 0 46
0 46 -22 31 -30 -21 -38 -20 -38 4 0 15 9 22 30 27 27 5 42 21 23 24 -59 10
-103 -2 -103 -28 0 -7 -5 -13 -11 -13 -7 0 -9 10 -7 25 3 14 3 25 1 25 -9 0
-33 -29 -33 -40 0 -8 -9 -10 -27 -5 -28 7 -55 8 -102 3 -13 -2 -26 3 -28 10
-3 6 2 12 11 12 9 0 16 8 16 17 0 13 3 14 12 5 20 -20 98 -13 98 8 0 5 -7 16
-17 25 -23 23 0 36 39 23 16 -6 45 -7 66 -4 20 4 49 7 65 7 l27 0 0 79 c0 72
-2 80 -19 80 -23 0 -37 30 -19 42 9 5 4 8 -14 8 -18 0 -28 5 -28 15 0 8 7 15
16 15 8 0 12 5 9 10 -6 10 6 14 38 11 10 -2 17 5 17 14 0 9 -6 15 -12 12 -7
-2 -25 2 -39 9 -15 7 -30 10 -33 6 -9 -9 -76 -9 -76 0 0 3 -14 9 -30 13 -17 4
-35 15 -41 26 -14 27 -88 24 -81 -3 3 -15 -2 -18 -29 -19 l-34 -1 28 -12 c15
-7 34 -22 42 -33 14 -20 13 -21 -33 -25 -26 -3 -51 0 -57 5 -7 7 -6 8 2 3 6
-3 14 -3 17 2 3 5 20 7 38 4 25 -3 30 -1 22 7 -6 7 -30 11 -55 9 -35 -2 -44
-7 -43 -20 1 -10 -2 -18 -6 -18 -20 0 -75 25 -92 42 -19 19 -63 25 -72 9 -11
-17 13 -61 33 -61 25 0 38 -19 14 -20 -10 0 -34 -1 -53 -3 -26 -1 -34 2 -32
12 4 19 -19 32 -35 19 -16 -13 -63 5 -89 33 -16 18 -16 19 2 20 14 0 11 4 -11
14 l-30 14 40 1 c39 0 39 0 17 16 -12 8 -22 21 -22 29 0 9 -6 12 -15 9 -11 -5
-13 -2 -9 10 3 9 1 23 -6 31 -6 8 -9 19 -5 25 8 12 42 13 49 1 8 -12 55 -20
62 -10 3 5 -3 9 -13 9 -77 0 -118 96 -48 111 23 5 25 7 8 8 -28 1 -31 31 -5
47 10 7 37 10 59 8 31 -3 44 0 51 12 8 15 12 15 38 -2 15 -11 25 -13 21 -6 -6
8 -2 12 12 12 12 0 21 5 21 10 0 6 -3 10 -8 10 -4 0 -12 10 -17 23 -10 23 -65
38 -65 18 0 -6 -11 -11 -24 -11 -14 0 -27 -4 -30 -9 -3 -5 -17 -11 -31 -13
-37 -7 -55 18 -46 67 6 35 10 40 31 38 l25 -3 -25 19 c-24 19 -41 81 -21 81 6
0 1 15 -10 34 -10 18 -17 41 -13 50 3 9 2 22 -3 29 -6 6 -18 37 -29 67 -10 30
-22 59 -26 64 -4 6 -8 16 -8 24 0 14 -29 83 -39 92 -8 7 -30 42 -38 60 -3 8
-18 31 -33 50 -14 19 -35 53 -45 75 -17 37 -79 105 -96 105 -4 0 -14 6 -21 13
-7 7 -29 24 -48 37 -19 13 -37 27 -40 31 -3 3 -16 12 -30 19 -27 14 -37 21
-93 74 -21 20 -44 36 -51 36 -7 0 -21 9 -31 20 -10 11 -26 20 -36 20 -10 0
-20 4 -23 8 -8 13 -107 33 -183 37 -37 2 -88 10 -113 18 -25 8 -67 15 -94 16
-27 1 -79 3 -115 5 -36 1 -77 1 -91 -1z m-3733 -1387 c-2 -5 -18 -17 -36 -27
-30 -16 -31 -18 -12 -24 25 -8 26 -18 5 -36 -14 -12 -13 -14 7 -21 12 -5 25
-5 28 0 3 5 23 7 44 4 60 -7 38 -27 -34 -30 -46 -3 -58 -6 -44 -12 19 -8 19
-9 -2 -9 -12 -1 -24 -9 -28 -21 -3 -11 -14 -20 -24 -20 -10 0 -24 -7 -31 -14
-8 -11 -18 -12 -36 -6 -13 5 -31 7 -39 4 -8 -4 -15 -1 -15 5 0 6 11 13 25 17
14 3 25 10 25 15 0 5 7 9 15 9 8 0 15 4 15 10 0 5 -6 7 -14 4 -8 -3 -17 0 -21
6 -3 6 -1 9 6 8 7 -2 15 6 17 17 4 18 3 18 -14 5 -10 -8 -15 -10 -11 -4 3 6 0
20 -8 30 -13 18 -14 18 -24 -8 -6 -16 -15 -28 -21 -28 -13 0 -13 17 0 25 5 3
9 21 8 39 -1 20 6 41 18 53 17 18 30 21 111 19 51 0 92 -5 90 -10z m4170 -41
c21 -5 30 -12 26 -21 -3 -8 -11 -14 -19 -14 -9 0 -14 -11 -14 -30 l0 -30 -107
4 c-119 4 -166 16 -157 41 3 8 11 15 17 15 6 0 18 6 26 14 9 7 28 17 44 22 32
11 139 10 184 -1z m-3701 -133 c1 -12 -3 -20 -9 -19 -5 1 -10 -8 -12 -20 -1
-17 4 -23 17 -23 11 0 16 -4 13 -10 -3 -5 -1 -10 4 -10 6 0 11 -7 11 -16 0
-11 -6 -14 -22 -8 -24 8 -36 9 -80 6 -20 -2 -28 -7 -28 -21 0 -16 7 -20 41
-19 23 0 44 -4 48 -9 3 -5 14 -12 24 -16 20 -7 23 -40 4 -55 -7 -6 -24 -9 -38
-6 -21 4 -21 3 4 -7 15 -6 28 -15 28 -20 1 -5 2 -14 3 -21 0 -6 7 -13 15 -16
9 -3 11 1 7 16 -4 11 -2 23 3 27 7 3 8 0 5 -9 -4 -11 0 -16 11 -16 27 0 7 -19
-33 -29 -26 -8 -39 -7 -47 1 -7 8 -6 9 5 3 12 -6 13 -5 3 5 -10 10 -19 10 -48
-4 -42 -20 -91 -14 -97 12 -2 9 -3 40 -3 67 0 42 3 50 18 47 21 -4 24 30 4 47
-8 6 -14 25 -15 41 l-1 31 67 -5 c45 -4 62 -2 52 4 -12 8 -13 13 -2 27 7 10
15 26 19 36 7 23 28 16 29 -11z m5069 -63 c5 -5 0 -9 -13 -9 -12 0 -22 -4 -22
-9 0 -12 37 -24 50 -16 6 3 7 -1 4 -9 -5 -13 4 -16 54 -16 34 0 64 -4 67 -10
3 -5 -3 -10 -15 -10 -15 0 -20 -5 -18 -17 2 -10 11 -17 20 -15 9 1 19 -2 23
-8 3 -5 -3 -10 -13 -10 -16 0 -19 -5 -15 -21 6 -21 4 -21 -33 -14 -21 5 -53 8
-71 8 -23 0 -33 5 -36 19 -4 12 -13 18 -24 17 -10 -2 -24 0 -30 4 -19 12 -32
0 -26 -22 3 -13 -1 -21 -14 -24 -10 -3 1 -3 23 0 25 3 44 1 48 -6 4 -6 23 -11
42 -11 35 0 46 -16 19 -26 -8 -4 -15 -12 -15 -20 0 -8 -7 -14 -16 -14 -11 0
-14 5 -10 16 6 15 -1 16 -58 10 -56 -6 -66 -4 -75 11 -9 16 -10 14 -11 -9 0
-25 3 -27 47 -30 43 -3 48 -5 47 -28 0 -22 -4 -25 -29 -22 -28 2 -29 1 -11
-13 17 -13 17 -15 3 -20 -8 -4 -24 -2 -36 4 -25 14 -71 14 -71 1 0 -6 7 -13
15 -16 34 -13 12 -24 -38 -18 -58 7 -102 -8 -93 -31 4 -10 -2 -11 -25 -5 -27
8 -29 7 -29 -18 0 -26 1 -27 55 -24 79 5 101 -6 50 -24 -29 -10 -65 -13 -127
-9 -59 3 -88 2 -88 -6 0 -6 9 -8 23 -4 18 6 20 5 10 -6 -10 -10 -18 -10 -38
-1 -32 15 -38 15 -30 2 3 -5 0 -10 -9 -10 -15 0 -32 53 -21 70 3 5 14 10 23
10 14 0 14 2 3 9 -16 10 -6 31 14 31 8 0 18 -8 24 -17 8 -15 11 -15 27 -3 10
8 15 10 12 5 -4 -7 4 -10 20 -9 44 3 46 4 34 16 -10 10 -15 10 -22 -2 -6 -9
-10 -10 -10 -3 0 6 -9 14 -19 18 -12 4 -18 12 -14 21 3 7 0 14 -6 14 -6 0 -11
-4 -11 -10 0 -15 -27 -12 -33 3 -8 20 9 41 27 34 9 -4 26 -3 38 2 21 7 20 8
-7 15 -28 7 -44 21 -45 39 0 4 18 7 40 7 32 0 38 3 33 16 -7 20 17 37 34 23 7
-6 18 -7 27 -2 12 7 6 13 -29 28 -59 26 -61 55 -5 73 22 6 54 12 71 12 27 0
30 2 19 15 -16 20 -15 21 42 33 36 7 48 6 52 -4 3 -7 17 -14 33 -17 l28 -4
-25 -8 -25 -9 29 -7 c19 -5 35 -4 43 3 8 6 18 7 26 1 6 -5 33 -8 59 -7 35 2
46 -1 42 -10 -3 -9 7 -18 25 -24 17 -6 31 -7 31 -2 0 5 -9 12 -20 15 -11 4
-18 10 -15 14 6 11 -40 61 -57 62 -19 1 -71 33 -76 47 -3 9 11 11 55 6 32 -4
62 -10 68 -15z m-6491 -11 c-3 -12 0 -18 10 -18 9 0 16 -6 16 -14 0 -10 14
-16 43 -19 l42 -3 -32 -8 c-21 -6 -33 -16 -37 -32 -5 -18 -13 -24 -35 -24 -16
0 -36 -3 -45 -6 -11 -4 -16 -1 -16 10 0 9 -8 16 -17 16 -13 0 -14 3 -5 12 25
25 13 38 -35 38 -44 0 -48 2 -49 25 -2 26 2 28 53 27 18 -1 35 3 38 9 4 5 22
8 41 7 28 -2 33 -5 28 -20z m3316 -119 c0 -6 7 -9 15 -6 8 4 17 2 20 -3 3 -5
-3 -11 -12 -13 -10 -3 0 -3 22 -1 49 4 90 -15 90 -41 0 -16 8 -21 35 -23 21
-2 40 -10 47 -21 11 -17 7 -19 -35 -24 -27 -3 -50 -1 -53 5 -5 7 -8 7 -10 0
-6 -14 -55 -20 -52 -6 1 7 -12 15 -30 19 -30 8 -31 8 -7 13 22 4 21 5 -15 18
-22 8 -56 15 -75 15 -19 1 -39 4 -45 9 -5 4 -23 10 -38 14 -34 8 -25 30 9 23
13 -2 21 0 18 4 -3 5 7 9 23 9 15 0 35 5 43 10 20 13 50 13 50 -1z m1887 -18
c33 -24 29 -50 -8 -58 l-31 -6 42 -14 c23 -8 48 -19 54 -24 6 -5 30 -23 54
-40 24 -16 45 -36 49 -44 9 -24 -7 -87 -20 -82 -7 3 -11 9 -10 15 3 12 -30 5
-67 -15 -32 -17 -40 -16 -40 2 0 8 -4 15 -10 15 -5 0 -10 -6 -10 -14 0 -8 -12
-24 -26 -35 -19 -15 -31 -18 -49 -11 -12 5 -25 7 -28 4 -2 -3 -2 6 0 19 5 27
-15 47 -27 27 -8 -13 -62 39 -87 83 -7 12 -12 18 -13 14 0 -16 -41 15 -50 39
-5 13 -16 24 -23 24 -7 0 -24 11 -37 25 -19 20 -20 25 -7 25 8 0 17 -8 19 -17
2 -12 16 -17 52 -19 27 -2 53 -8 56 -15 6 -8 9 -8 14 0 4 6 21 11 39 11 29 0
30 1 11 15 -16 12 -17 16 -4 24 8 5 18 7 22 5 15 -9 21 28 7 38 -10 6 3 8 39
5 56 -4 66 3 30 21 -21 10 -20 11 7 5 17 -3 40 -13 52 -22z m-3552 -11 c-3 -5
-1 -10 5 -10 6 0 9 -4 5 -9 -3 -5 0 -13 6 -17 6 -3 15 -1 19 6 7 11 13 10 32
-2 21 -13 25 -13 41 3 34 32 154 29 142 -4 -12 -32 41 -51 93 -33 18 6 22 4
22 -13 0 -52 35 -69 61 -30 15 22 49 18 49 -7 0 -8 5 -14 10 -14 6 0 9 4 8 9
-2 5 2 9 7 9 6 0 9 -4 7 -9 -1 -5 5 -9 13 -9 9 0 15 -9 15 -22 0 -17 3 -19 9
-10 13 21 75 11 79 -12 2 -10 0 -16 -5 -13 -4 3 -6 -17 -5 -44 3 -31 0 -49 -7
-49 -6 0 -11 5 -11 11 0 6 -30 9 -80 8 -44 -1 -83 1 -87 5 -3 3 28 6 70 6 78
0 92 6 77 30 -6 10 -24 13 -58 11 -28 -1 -53 2 -57 8 -7 12 -35 -10 -35 -27 0
-12 -24 -22 -50 -22 -10 0 -20 -6 -23 -12 -9 -26 -16 -1 -18 67 -2 39 -7 73
-11 76 -5 3 -44 4 -88 3 -59 -3 -83 0 -94 11 -8 8 -22 12 -30 9 -9 -4 -16 -1
-16 6 0 7 -8 19 -17 26 -16 11 -21 9 -40 -13 -18 -20 -29 -24 -52 -20 -28 6
-31 4 -37 -28 -8 -42 -17 -49 -44 -35 -11 6 -63 11 -115 12 -98 1 -116 7 -91
27 9 8 16 8 20 2 4 -6 13 -8 21 -5 8 4 28 1 45 -4 29 -11 30 -10 24 13 -4 18
-1 27 12 32 10 4 19 2 22 -5 2 -7 8 -12 13 -12 5 0 5 10 0 23 -7 18 -4 28 15
46 20 20 27 21 40 10 9 -8 18 -9 22 -3 7 10 51 32 65 33 5 1 5 -3 2 -9z
m-1217 -20 c3 -7 0 -10 -7 -6 -6 4 -11 3 -11 -1 0 -5 8 -13 19 -20 15 -9 23
-8 41 4 22 15 24 15 46 -10 12 -14 25 -23 30 -19 4 4 4 1 0 -5 -4 -7 -16 -13
-27 -13 -10 0 -19 -3 -19 -8 0 -4 -21 -6 -47 -5 -27 1 -57 -2 -68 -7 -11 -5
-37 -11 -58 -15 -29 -5 -37 -10 -35 -23 3 -14 15 -17 83 -16 55 1 83 -2 93
-12 11 -12 10 -14 -10 -14 l-23 0 24 -19 c17 -13 22 -24 17 -36 -5 -14 -9 -16
-18 -7 -7 7 -25 12 -40 12 -32 0 -34 19 -4 36 14 9 4 10 -49 8 -68 -3 -80 -7
-80 -27 0 -5 -5 -12 -10 -14 -6 -2 -12 13 -13 32 -2 19 2 35 7 35 5 0 7 9 4
21 -7 25 11 39 48 39 21 0 28 6 32 26 4 23 2 25 -19 21 -32 -6 -30 -1 6 18 17
9 30 22 30 30 0 17 52 13 58 -5z m584 -99 c6 -22 6 -37 -1 -44 -15 -15 -14
-23 5 -42 11 -11 13 -20 7 -26 -13 -13 -46 -19 -53 -9 -3 4 -18 10 -34 14 -26
6 -28 5 -17 -8 11 -13 9 -17 -14 -26 -50 -19 -95 -9 -95 21 0 16 8 19 48 20
42 1 44 2 17 9 -23 6 -12 8 43 9 129 2 74 42 -61 43 -115 2 -93 22 32 29 111
7 148 19 58 19 -31 0 -59 5 -62 10 -4 6 -11 7 -17 4 -6 -4 -9 -3 -5 2 3 5 36
9 73 9 l68 0 8 -34z m2248 10 c0 -5 -6 -12 -12 -14 -8 -3 -5 -6 5 -6 13 -1 17
-6 12 -20 -3 -11 -1 -22 5 -26 5 -3 10 1 10 9 0 20 21 20 46 0 19 -15 18 -15
-3 -11 -26 6 -31 -8 -8 -17 8 -3 15 -16 15 -28 0 -14 3 -19 8 -11 9 14 199 16
207 3 3 -5 0 -18 -7 -29 -9 -15 -9 -25 0 -46 25 -55 18 -65 -45 -65 -39 0 -53
3 -44 9 12 8 9 11 -12 16 -14 4 -31 13 -38 21 -6 8 -20 14 -30 14 -11 0 -18 3
-18 8 4 23 -4 32 -26 32 -15 0 -25 6 -25 14 0 8 -9 18 -20 21 -11 3 -20 14
-20 24 0 23 -19 41 -36 34 -8 -3 -14 1 -14 11 0 9 4 16 10 16 16 0 0 27 -23
38 -19 9 -17 11 21 11 23 1 42 -3 42 -8z m-1499 -43 c0 -10 2 -10 6 0 8 19 41
14 48 -8 3 -11 3 -30 -1 -42 -4 -13 -6 -45 -5 -73 1 -48 1 -49 -15 -30 -15 18
-16 19 -10 1 6 -17 2 -18 -34 -13 -23 3 -40 1 -40 -5 0 -5 -4 -6 -10 -3 -5 3
-10 16 -10 29 0 12 -3 25 -6 28 -10 11 -44 -4 -44 -19 0 -13 3 -13 15 -3 12
10 15 10 15 -4 0 -9 -7 -16 -16 -16 -12 0 -15 -6 -11 -22 6 -23 -21 -68 -40
-68 -13 0 -33 68 -26 86 3 9 -2 14 -16 14 -12 0 -21 -6 -21 -15 0 -7 -8 -19
-17 -24 -17 -10 -17 -10 0 -11 9 0 17 -8 17 -17 0 -13 -3 -14 -12 -5 -19 19
-47 14 -72 -13 -30 -32 -44 -32 -52 1 -4 16 -12 23 -20 20 -8 -3 -14 1 -14 8
0 20 -27 40 -32 24 -3 -8 -19 -11 -46 -10 -30 3 -46 -2 -61 -17 -24 -24 -43
-28 -35 -6 4 11 0 15 -16 15 -15 0 -20 -5 -17 -14 4 -10 1 -13 -9 -9 -7 3 -15
8 -15 12 -7 37 -6 62 2 66 5 4 9 1 9 -4 0 -7 23 -11 55 -11 30 0 55 5 55 10 0
6 25 10 56 10 37 0 53 4 48 11 -3 6 -16 8 -28 5 -11 -3 -28 -1 -36 4 -12 8
-12 10 4 16 14 5 15 9 4 15 -8 6 3 9 30 9 40 0 43 -2 37 -21 -5 -14 -3 -19 3
-15 6 3 18 -2 28 -11 12 -13 19 -14 22 -5 2 6 12 12 23 12 21 0 24 12 9 41 -8
15 -7 19 5 19 8 0 15 -4 15 -10 0 -5 10 -10 22 -10 21 0 21 1 3 13 -17 13 -16
15 14 25 17 6 38 9 45 6 14 -5 46 20 46 37 0 15 150 11 151 -3z m2429 -83 c7
-9 21 -13 31 -10 15 5 19 1 19 -20 0 -17 5 -25 12 -23 7 3 20 -5 30 -16 14
-18 20 -19 37 -8 18 10 21 10 21 -3 0 -22 36 -38 59 -26 21 12 52 -11 31 -24
-14 -9 -13 -35 3 -35 6 0 17 -12 24 -26 l12 -27 -55 6 c-30 3 -62 11 -70 18
-8 6 -26 9 -42 6 -31 -6 -249 6 -257 15 -3 3 4 24 16 47 15 29 26 40 38 37 9
-3 22 -2 29 2 9 6 6 14 -13 30 -14 12 -30 22 -35 22 -14 0 -12 18 3 35 16 19
91 19 107 0z m-3462 -81 c13 -4 22 -14 22 -25 0 -28 38 -25 42 4 3 19 10 22
56 25 42 2 52 0 52 -12 0 -9 -4 -16 -10 -16 -5 0 -10 -14 -10 -30 0 -27 3 -30
29 -28 16 1 27 6 24 11 -2 4 1 15 9 24 11 15 11 16 -4 10 -10 -3 -18 -2 -18 3
0 6 9 10 20 10 17 0 19 -5 16 -42 -3 -23 -1 -36 4 -29 14 23 22 -6 11 -43 -7
-27 -6 -36 5 -38 9 -2 11 -8 4 -17 -7 -12 -11 -12 -24 -2 -9 8 -16 22 -16 33
0 52 -48 77 -76 41 -13 -17 -15 -17 -29 1 -8 11 -15 26 -15 33 0 7 -5 13 -11
13 -8 0 -8 4 0 14 8 10 9 16 1 21 -5 3 -15 -6 -20 -20 -15 -39 -12 -55 9 -55
11 0 23 -5 27 -11 12 -20 -11 -29 -56 -20 -43 8 -44 9 -20 19 24 10 23 11 -14
11 -32 1 -36 3 -27 15 9 10 8 15 -3 19 -9 4 -17 -2 -21 -14 -8 -26 -81 -27
-102 -1 -14 16 -14 16 -9 0 7 -23 1 -23 -24 2 -19 19 -14 25 17 21 7 -1 10 4
8 11 -3 8 1 22 9 33 12 16 16 17 29 6 13 -11 20 -9 38 8 24 22 39 25 77 15z
m-851 -138 c-3 -8 1 -17 9 -20 8 -3 14 1 14 9 0 23 17 18 24 -7 11 -42 6 -76
-11 -83 -39 -17 -98 -2 -89 21 3 9 1 12 -5 9 -5 -4 -16 -2 -23 4 -10 8 -16 8
-25 -3 -10 -12 -7 -18 14 -32 19 -13 23 -19 13 -25 -8 -5 -19 0 -31 12 -10 10
-24 19 -32 19 -8 0 -15 4 -15 9 0 5 -9 11 -20 14 -12 3 -20 14 -20 26 0 15 9
22 35 27 19 3 35 11 35 16 0 7 20 8 56 4 36 -4 53 -3 49 4 -3 5 1 10 10 10 11
0 15 -5 12 -14z m4399 -42 c66 -8 88 -13 149 -33 33 -11 74 -21 92 -21 31 0
56 -17 66 -42 4 -10 7 -11 18 0 20 18 45 15 61 -10 14 -21 15 -21 42 -3 38 25
52 9 32 -39 -14 -34 -41 -47 -59 -29 -10 10 -107 11 -113 1 -8 -13 -145 3
-192 23 -23 10 -49 16 -56 13 -7 -3 -20 2 -28 10 -9 8 -24 13 -34 10 -12 -3
-31 6 -50 24 -25 22 -31 35 -27 55 3 15 11 27 18 27 7 0 16 7 19 16 3 8 10 13
16 9 5 -3 26 -8 46 -11z m-4242 -28 c7 3 52 6 99 7 75 2 87 0 91 -16 2 -10 10
-16 18 -15 8 2 13 -7 13 -27 0 -27 -3 -30 -35 -32 -19 -1 -39 -2 -45 -3 -5 -1
-32 -3 -60 -4 -27 -2 -57 -6 -66 -10 -14 -6 -18 1 -24 40 -3 25 -8 52 -9 58
-2 6 -1 8 1 4 2 -4 10 -5 17 -2z m1219 7 c2 -4 2 -25 0 -45 -5 -37 -6 -38 -49
-38 -28 0 -46 -5 -52 -15 -7 -13 -14 -14 -35 -6 -15 6 -27 15 -27 21 0 18 -18
11 -23 -10 -6 -25 14 -70 32 -70 8 0 11 6 7 15 -8 22 17 18 32 -5 11 -19 10
-20 -33 -20 -25 0 -45 5 -45 10 0 6 -5 10 -11 10 -6 0 -9 -6 -6 -14 4 -10 -5
-14 -36 -14 -40 0 -41 1 -17 12 22 10 25 17 24 56 l-1 45 43 -1 c23 0 50 -6
58 -13 23 -20 48 9 40 46 -6 29 -7 29 -55 23 -44 -6 -67 -1 -55 11 8 8 204 10
209 2z m918 -24 c22 -16 29 -28 29 -55 0 -25 -4 -34 -16 -34 -11 0 -14 -5 -10
-16 5 -12 2 -15 -11 -10 -9 4 -20 1 -25 -6 -5 -9 -8 -6 -8 10 0 12 -4 22 -10
22 -5 0 -10 -9 -10 -19 0 -16 -5 -18 -30 -15 -22 4 -30 1 -30 -9 0 -8 -7 -18
-16 -21 -12 -4 -15 -2 -10 9 4 12 2 13 -14 3 -27 -17 -38 -3 -43 55 l-5 47 52
0 c42 0 57 5 86 30 19 16 37 30 38 30 2 0 17 -9 33 -21z m3009 -88 c0 -49 -58
-161 -109 -213 -37 -36 -71 -50 -71 -28 0 16 41 100 50 100 4 0 12 17 19 38 7
20 28 54 46 75 19 21 37 47 40 58 10 30 25 12 25 -30z m-3331 12 c22 -49 8
-100 -19 -68 -9 10 -9 15 -1 15 15 0 14 30 -1 31 -10 0 -10 2 0 6 18 7 14 19
-7 19 -17 0 -19 -6 -15 -45 2 -25 10 -48 17 -53 13 -8 13 -8 -50 -13 -24 -2
-43 1 -43 6 0 5 -9 9 -20 9 -11 0 -20 -5 -20 -11 0 -7 -7 -8 -17 -4 -10 4 -26
7 -36 7 -12 -1 -16 4 -13 16 3 9 1 24 -5 32 -9 13 -10 13 -8 0 3 -30 -1 -40
-17 -40 -8 0 -12 -4 -9 -10 3 -5 -6 -12 -20 -16 -34 -8 -54 18 -55 69 0 44 23
60 46 31 8 -11 13 -13 12 -5 -2 7 7 15 20 17 15 3 22 -1 22 -13 0 -16 1 -16
13 0 9 12 27 15 72 14 l60 -2 -3 -42 c-3 -34 0 -43 12 -43 19 0 22 20 4 21
-10 0 -10 2 0 6 22 9 9 77 -14 73 -5 -1 -10 2 -11 7 -2 5 19 9 46 10 43 1 50
-2 60 -24z m1010 -13 c7 0 11 6 8 14 -9 22 49 29 79 10 13 -9 25 -23 25 -30 1
-8 2 -20 3 -26 1 -8 15 -13 33 -14 18 0 36 -3 39 -7 4 -4 14 -7 23 -7 11 0 12
3 5 8 -9 5 -8 11 2 20 11 10 14 10 14 -1 0 -7 7 -14 15 -14 8 0 15 6 15 14 0
7 -5 13 -12 13 -6 0 -3 9 7 20 23 25 23 25 60 -6 24 -21 26 -25 9 -20 -14 5
-24 1 -28 -9 -8 -23 37 -19 59 5 24 26 37 25 67 -5 l25 -24 27 28 c27 28 61
32 64 8 16 -119 18 -114 -48 -101 -22 5 -35 15 -42 33 -9 23 -11 24 -22 9 -7
-9 -24 -20 -38 -23 -23 -6 -26 -4 -21 14 3 12 9 21 14 21 15 0 10 17 -7 24 -8
3 -12 2 -9 -4 3 -6 -1 -7 -9 -4 -12 4 -16 0 -16 -16 0 -20 -2 -21 -17 -9 -11
10 -14 10 -9 2 4 -7 2 -13 -4 -13 -6 0 -13 7 -17 16 -5 13 -7 14 -14 2 -4 -8
-25 -15 -45 -16 -45 -3 -60 -12 -21 -12 18 0 27 -5 27 -16 0 -8 -5 -12 -11 -9
-6 4 -30 4 -55 0 -35 -5 -44 -10 -44 -26 0 -23 -23 -25 -44 -4 -8 8 -19 15
-25 15 -6 0 -11 4 -11 8 0 5 -18 18 -39 30 -22 13 -55 36 -75 54 l-35 31 22
28 21 29 21 -20 c12 -11 27 -20 34 -20z m-2593 -56 c-4 -12 -2 -15 9 -10 23 9
18 -14 -10 -40 -33 -31 -32 -40 8 -40 l32 1 -3 -65 c-1 -35 -7 -69 -12 -74 -7
-7 -10 -3 -10 10 0 29 -4 31 -60 24 -38 -5 -50 -3 -50 7 0 7 -7 13 -15 13 -8
0 -15 -7 -15 -15 0 -13 -9 -14 -49 -10 -43 5 -51 3 -61 -15 -9 -18 -20 -20
-95 -20 -61 0 -85 3 -85 13 0 18 12 32 35 42 19 7 19 8 -3 14 l-24 6 21 24
c13 15 21 19 21 10 0 -9 3 -10 8 -3 4 6 30 11 57 12 28 0 64 2 82 5 18 2 31 0
30 -5 -1 -6 7 -15 18 -21 11 -7 25 -18 31 -26 14 -18 25 -1 17 27 -3 12 -12
22 -20 22 -8 0 -17 9 -20 20 -3 11 -12 20 -19 20 -8 0 -14 7 -14 15 0 11 12
15 45 15 49 0 67 -18 45 -45 -8 -10 -9 -19 -1 -32 10 -17 10 -16 11 4 0 12 4
24 9 28 6 3 6 18 0 37 -15 53 -4 68 48 68 37 0 44 -3 39 -16z m2132 -101 l-3
-38 -72 -3 -72 -3 -7 -34 c-6 -35 -24 -49 -24 -20 0 14 -12 19 -32 16 -5 0 -8
6 -8 14 0 8 -4 15 -10 15 -5 0 -10 9 -10 20 0 11 5 20 10 20 6 0 15 11 20 25
9 24 12 25 110 25 l101 0 -3 -37z m1203 -73 c15 -9 18 -21 17 -70 l-2 -59 -42
-7 c-47 -7 -66 0 -58 20 3 7 -2 21 -11 30 -15 14 -18 14 -42 -1 -22 -15 -27
-15 -37 -2 -6 7 -27 14 -46 14 -32 0 -35 -3 -38 -32 -2 -18 -7 -33 -12 -33 -4
0 -6 9 -3 20 3 11 0 20 -6 20 -6 0 -11 -7 -11 -15 0 -8 -7 -15 -15 -15 -18 0
-19 12 -2 29 10 10 9 11 -5 6 -14 -6 -18 -2 -18 19 0 19 -5 26 -20 26 -29 0
-25 28 6 42 21 10 31 9 54 -4 18 -10 33 -12 43 -6 21 11 69 -1 60 -15 -4 -7 0
-8 13 -2 10 5 36 9 56 9 20 0 35 3 32 7 -6 10 26 28 49 29 10 0 27 -5 38 -10z
m-1260 -50 c67 0 80 -3 85 -17 3 -10 10 -26 15 -35 5 -10 9 -31 9 -48 0 -28
-3 -30 -37 -31 -21 -1 -50 -3 -65 -5 -16 -1 -28 1 -28 7 0 5 5 9 10 9 6 0 10
12 9 28 0 15 -3 21 -6 15 -2 -7 -16 -13 -29 -13 -17 0 -23 -4 -18 -12 5 -7 1
-9 -13 -6 -17 4 -19 2 -15 -15 4 -16 1 -19 -11 -14 -9 3 -18 0 -21 -9 -3 -8
-17 -14 -31 -14 -26 0 -33 14 -14 25 6 4 8 12 6 19 -8 21 12 56 33 56 16 0 21
9 27 42 3 24 8 37 11 30 2 -8 29 -12 83 -12z m-2251 -71 c0 -45 -43 -80 -101
-81 -18 -1 -29 -6 -29 -15 0 -12 24 -14 142 -11 l142 3 -3 -47 -3 -48 67 0
c63 0 66 -1 63 -22 -3 -26 -16 -27 -96 -7 -33 9 -54 20 -58 31 -4 14 -17 18
-59 18 -36 0 -55 4 -58 14 -4 9 -14 12 -26 9 -12 -3 -21 -1 -21 6 0 6 -5 11
-11 11 -5 0 -7 -4 -4 -10 3 -5 1 -10 -4 -10 -6 0 -11 6 -12 13 0 10 -2 10 -6
0 -2 -7 -13 -13 -24 -13 -10 0 -19 -4 -19 -9 0 -14 -40 -21 -63 -11 l-22 9 23
0 c12 1 22 5 22 11 0 5 -7 7 -15 4 -8 -4 -15 -1 -15 5 0 6 -6 8 -14 5 -9 -3
-17 3 -21 15 -3 12 -15 21 -26 21 -29 0 -23 18 9 23 26 4 26 4 5 12 -19 6 -23
15 -23 51 l0 43 98 4 c53 1 112 4 130 5 30 2 32 0 32 -29z m1654 -89 c58 0 64
-2 68 -22 4 -20 0 -23 -29 -23 -38 0 -41 -20 -3 -21 51 -2 55 -4 27 -19 -15
-8 -35 -12 -45 -9 -14 5 -15 4 -2 -5 12 -8 12 -11 -3 -17 -21 -8 -32 1 -33 27
-2 30 -3 30 -24 19 -17 -9 -20 -8 -20 7 0 11 -3 14 -8 7 -4 -6 -28 -13 -54
-16 -54 -6 -64 9 -28 39 11 10 20 30 20 46 l0 29 36 -21 c26 -15 52 -21 98
-21z m-1634 -113 c0 -8 14 -11 45 -9 37 3 44 1 39 -11 -6 -17 -52 -28 -83 -20
-17 4 -21 1 -21 -20 0 -14 6 -27 13 -30 6 -2 -20 -3 -59 -3 -62 1 -70 3 -66
19 2 9 -1 17 -7 17 -6 0 -11 -4 -11 -10 0 -16 -27 -12 -34 5 -11 30 15 64 53
68 85 9 131 7 131 -6z m959 -158 c7 -21 8 -21 15 -3 7 19 8 19 22 -1 9 -12 18
-16 22 -10 8 12 57 18 120 14 9 -1 28 2 42 6 24 6 25 6 5 -10 -12 -10 -33 -15
-52 -13 -17 2 -30 1 -27 -3 5 -9 -113 -30 -131 -22 -9 3 -15 -1 -15 -11 0 -12
10 -16 38 -17 37 -1 37 -1 9 -11 -18 -6 -41 -7 -65 0 -37 9 -37 9 -12 20 24
10 24 11 -9 11 -19 1 -39 8 -45 15 -8 12 -19 13 -46 6 l-35 -9 37 2 c44 3 38
-8 -9 -16 -21 -4 -37 -2 -45 6 -12 13 -100 8 -115 -6 -9 -9 -44 23 -37 34 3 5
0 9 -5 9 -6 0 -11 4 -11 8 0 5 26 10 57 11 31 1 58 3 59 4 1 1 52 3 113 5 107
2 112 1 120 -19z m3171 -25 c8 -16 23 -35 33 -42 9 -7 17 -19 17 -27 0 -8 9
-19 20 -25 11 -6 18 -16 14 -21 -7 -12 38 -59 74 -78 12 -6 22 -17 22 -24 0
-7 10 -17 22 -22 27 -12 35 -40 18 -60 -16 -20 -66 -19 -74 0 -3 8 -16 15 -30
15 -13 0 -27 6 -29 13 -3 6 -6 0 -6 -15 -1 -16 3 -28 9 -28 5 0 7 -6 4 -14 -3
-7 2 -16 10 -19 9 -4 16 -16 16 -27 0 -11 3 -20 8 -20 4 0 16 -17 27 -37 11
-21 26 -43 34 -49 16 -13 5 -37 -12 -28 -7 3 6 -11 27 -32 41 -40 42 -40 196
-56 18 -2 28 3 35 20 5 12 16 22 24 22 9 0 11 7 8 21 -4 15 1 23 21 32 34 15
92 73 92 92 0 8 5 15 11 15 6 0 8 -9 4 -21 -6 -17 -3 -20 12 -17 10 2 17 11
17 21 -1 10 5 17 17 17 11 0 19 4 19 9 0 4 12 9 28 9 87 4 132 14 133 30 0 11
2 12 6 5 2 -7 13 -13 24 -13 26 0 24 -12 -7 -45 l-27 -29 29 -23 c19 -15 24
-23 14 -24 -9 0 -10 -2 -3 -5 26 -11 -46 -125 -142 -225 -29 -30 -67 -79 -84
-108 -18 -29 -46 -65 -63 -79 -18 -15 -52 -46 -76 -69 -23 -23 -58 -54 -77
-69 -19 -14 -35 -31 -35 -36 0 -14 -57 -66 -78 -71 -12 -3 -10 -5 6 -6 35 -2
18 -18 -27 -25 -27 -4 -42 -12 -46 -26 -3 -11 -11 -20 -16 -20 -13 0 -1 40 18
62 16 18 10 38 -12 38 -9 0 -17 15 -20 38 -4 20 -11 46 -16 57 -13 28 -18 120
-8 136 8 11 11 11 20 -4 17 -28 25 -12 22 45 -5 102 -11 136 -27 159 -9 13
-16 31 -16 39 0 9 -9 35 -20 57 -11 23 -24 60 -29 84 -6 24 -19 67 -30 95 -11
28 -29 89 -41 135 -12 46 -26 88 -31 94 -5 5 -9 21 -9 35 0 14 -4 30 -9 36 -5
5 -11 18 -14 29 -3 16 -9 10 -26 -27 -27 -58 -32 -61 -77 -49 -35 10 -36 9
-30 -14 5 -18 1 -25 -14 -30 -11 -4 -18 -11 -15 -16 4 -5 1 -9 -5 -9 -7 0 -10
-7 -6 -15 3 -8 0 -15 -6 -15 -6 0 -4 -8 6 -18 21 -24 12 -75 -20 -119 -13 -17
-24 -35 -24 -39 0 -30 -68 -168 -101 -205 -22 -24 -56 -63 -77 -86 -20 -23
-40 -42 -45 -42 -6 -1 11 37 23 49 23 23 34 49 45 108 7 37 16 78 21 92 7 23
6 24 -9 11 -9 -7 -17 -24 -17 -36 0 -13 -6 -26 -12 -28 -10 -4 -9 -8 2 -16 8
-6 10 -11 4 -11 -17 0 -117 -100 -134 -134 -20 -38 -76 -96 -93 -96 -8 0 -22
-9 -32 -20 -10 -11 -24 -20 -32 -20 -16 0 -72 -60 -73 -77 0 -7 -12 -16 -26
-19 -21 -5 -31 -2 -44 16 -15 19 -18 20 -23 6 -10 -25 -30 -20 -22 7 3 12 9
40 11 62 7 55 68 176 115 226 21 23 39 47 39 52 0 6 7 19 17 29 9 11 11 18 5
18 -48 0 45 115 129 159 35 19 86 49 114 68 27 18 57 33 67 33 9 0 38 15 64
33 67 47 66 46 106 62 28 11 43 27 62 64 42 84 96 163 109 158 7 -2 19 -17 27
-33z m-3360 -32 c0 -5 10 -14 23 -20 18 -9 14 -10 -27 -7 -27 3 -54 1 -60 -4
-6 -4 -31 -11 -56 -15 -24 -4 -52 -14 -61 -22 -19 -17 -68 -22 -274 -29 -92
-3 -135 -2 -125 5 8 5 26 7 40 4 20 -4 22 -3 10 5 -12 8 -5 11 30 12 34 0 40
2 25 9 -19 8 -19 9 2 9 12 1 23 -3 25 -8 2 -5 24 -12 51 -16 39 -6 47 -5 47 9
0 12 5 14 23 8 12 -5 36 -6 52 -2 l30 6 -33 18 c-19 9 -31 20 -28 23 4 5 56
-15 90 -35 5 -3 6 -1 3 4 -3 6 16 11 45 12 27 1 55 5 62 10 13 9 76 29 94 31
6 1 12 -3 12 -7z m-320 -111 c0 -5 28 -10 63 -10 59 -1 116 -6 127 -11 3 -1
-20 -8 -50 -16 -32 -8 -102 -13 -170 -12 -63 0 -131 -3 -151 -7 -23 -4 -39 -3
-43 4 -5 7 2 11 18 11 14 0 26 4 26 9 0 13 33 23 105 31 33 4 63 8 68 9 4 0 7
-3 7 -8z m904 -86 c6 -16 76 -22 76 -6 0 9 106 8 115 -1 3 -3 -20 -8 -52 -12
-89 -11 -92 -12 -99 -19 -4 -4 2 -7 14 -7 12 0 22 -4 22 -9 0 -5 25 -9 55 -10
51 0 72 11 43 22 -9 3 -7 7 5 12 11 5 31 -1 56 -18 32 -21 53 -27 110 -28 39
-1 71 -6 71 -10 0 -5 -11 -9 -24 -9 -14 0 -28 -4 -31 -10 -3 -5 -15 -10 -25
-10 -10 0 -20 -4 -22 -9 -1 -5 -30 -12 -63 -15 -33 -3 -78 -9 -100 -14 -22 -4
-134 -7 -250 -7 -115 0 -212 -3 -215 -6 -8 -10 -210 -17 -210 -7 0 4 8 8 18 9
15 0 15 1 -2 8 -15 6 -16 10 -7 16 11 6 11 9 0 16 -10 6 -8 9 8 9 12 0 34 6
50 14 110 53 102 52 270 57 45 2 79 7 76 12 -3 5 3 4 14 -2 24 -12 93 4 93 21
0 9 -3 9 -12 0 -14 -14 -42 -16 -33 -2 3 6 0 10 -7 10 -9 0 -9 3 2 10 22 14
47 12 54 -5z m4031 -74 c9 -16 -106 -326 -131 -351 -6 -6 -23 -6 -44 0 -25 7
-41 6 -62 -4 -16 -8 -38 -12 -52 -8 -24 7 -24 8 -7 38 9 17 36 59 61 93 115
160 165 227 175 233 14 11 53 10 60 -1z m-4861 -13 c-4 -7 -3 -8 4 -4 7 4 22
0 34 -8 l22 -16 -28 0 c-16 0 -26 -3 -22 -7 4 -5 13 -8 19 -8 7 0 12 -7 12
-15 0 -8 5 -19 10 -23 6 -5 -8 -6 -30 -3 -22 3 -45 12 -51 21 -11 15 -34 21
-34 9 0 -4 8 -12 17 -19 14 -10 11 -12 -23 -13 -55 -2 -77 -7 -82 -20 -6 -18
-19 -14 -25 8 -4 16 -14 20 -51 20 -25 0 -46 -4 -46 -9 0 -13 27 -21 45 -15 8
4 15 2 15 -3 0 -14 -99 -45 -113 -36 -7 4 -2 9 12 13 31 7 40 30 12 30 -29 0
-26 12 9 35 16 11 30 23 30 28 0 4 7 7 16 7 8 0 12 -4 9 -10 -3 -5 -4 -10 -1
-10 2 0 11 -3 20 -6 11 -4 14 -1 11 14 -3 15 4 21 28 27 63 13 147 18 147 7 0
-6 -6 -13 -12 -15 -8 -4 -7 -6 3 -6 9 -1 19 8 22 19 3 11 10 20 17 20 6 0 8
-5 4 -12z m5511 -93 c134 -65 162 -87 134 -109 -8 -6 -32 -33 -53 -59 -32 -41
-43 -48 -65 -44 -31 6 -82 23 -136 47 -22 10 -57 25 -77 34 -42 17 -46 30 -23
73 8 15 23 49 34 76 12 27 26 47 35 47 9 0 76 -29 151 -65z m-6015 24 c0 -6
-6 -9 -13 -6 -8 3 -20 1 -27 -3 -10 -6 4 -11 40 -16 30 -5 57 -8 60 -7 3 1 18
5 34 9 22 5 28 4 24 -7 -3 -8 -2 -24 3 -36 5 -15 4 -23 -7 -27 -10 -4 -14 2
-14 20 0 23 -3 25 -37 22 -26 -2 -37 -7 -35 -17 2 -10 -10 -12 -57 -8 -49 5
-63 2 -82 -14 -12 -10 -29 -20 -38 -20 -9 -1 -25 -3 -36 -4 -11 -2 -37 -5 -57
-8 -21 -3 -38 -1 -38 4 0 5 11 9 24 9 13 0 29 7 36 15 10 12 9 15 -6 15 -11 0
-26 5 -34 11 -12 8 -10 9 7 4 17 -5 22 -3 17 8 -3 10 3 16 20 19 16 3 23 1 20
-7 -4 -9 3 -11 20 -8 14 3 26 11 26 18 0 15 54 30 70 20 5 -3 10 -2 10 4 0 9
20 16 58 20 6 0 12 -4 12 -10z m530 -59 c0 -5 -12 -10 -27 -10 l-28 -1 28 -15
c15 -8 27 -18 27 -23 0 -13 -47 -34 -60 -26 -7 4 -16 1 -21 -6 -14 -22 -10
-33 6 -19 17 14 31 8 21 -9 -4 -5 -32 -21 -63 -36 -32 -14 -60 -30 -63 -34 -3
-5 -16 -11 -30 -15 -23 -6 -23 -6 -5 5 11 7 22 15 25 18 3 3 17 12 32 20 15 8
30 21 33 29 5 14 4 14 -12 0 -23 -19 -53 -30 -53 -19 0 5 -21 11 -47 14 -26 3
-49 10 -51 16 -5 16 -32 13 -38 -4 -6 -15 -34 -21 -34 -7 0 13 53 32 91 32 21
0 39 6 42 13 2 6 8 9 12 4 5 -4 3 -13 -3 -19 -20 -20 -14 -26 28 -25 37 2 40
4 35 25 -5 19 0 25 29 37 20 8 46 15 58 16 20 0 21 1 6 12 -15 10 -15 12 5 23
27 15 57 17 57 4z m5210 -35 c0 -17 0 -17 -55 -125 -21 -41 -43 -85 -49 -97
-6 -13 -14 -23 -18 -23 -5 0 -8 -11 -8 -24 0 -23 -16 -36 -46 -36 -18 0 -18
15 1 33 8 8 11 17 8 20 -3 4 6 30 20 59 27 58 72 163 81 191 7 22 66 24 66 2z
m-5715 -7 c-8 -21 9 -38 51 -53 21 -8 33 -14 26 -15 -7 0 -12 -8 -10 -17 2
-14 -3 -17 -25 -15 -16 2 -35 -2 -42 -8 -16 -13 -86 -3 -97 14 -4 6 -10 7 -15
3 -4 -5 -1 -12 7 -17 22 -14 5 -23 -19 -11 -13 7 -20 20 -18 33 1 11 -5 23
-13 25 -12 4 -12 3 -1 -5 10 -7 6 -13 -19 -26 -18 -9 -40 -16 -48 -16 -12 0
-12 2 -1 17 13 15 11 16 -18 10 -18 -3 -35 -2 -38 3 -3 6 3 10 14 10 22 0 40
20 19 20 -8 0 -6 5 5 11 9 5 22 7 27 4 5 -3 25 1 43 9 18 9 58 17 90 19 31 1
57 5 57 10 0 4 7 7 15 7 8 0 12 -6 10 -12z m5050 -357 c43 -18 71 -35 73 -46
4 -17 -29 -119 -53 -165 -7 -14 -18 -43 -25 -65 -22 -71 -52 -135 -64 -136 -6
-1 -20 -1 -31 0 -18 1 -18 0 3 -11 28 -14 23 -34 -9 -31 l-24 3 23 -10 c22 -9
31 -30 12 -30 -6 0 -8 -10 -5 -23 5 -17 -2 -32 -27 -58 -35 -36 -81 -69 -97
-69 -16 0 -31 61 -31 132 0 68 1 69 31 82 29 12 30 14 13 24 -32 18 -8 25 26
7 17 -9 39 -15 48 -13 9 2 -12 15 -48 29 -41 16 -64 31 -63 40 1 8 11 39 23
69 21 52 62 163 97 258 18 51 30 52 128 13z m1165 -15 c14 -12 125 -66 135
-66 9 0 113 -69 129 -86 26 -26 9 -30 -24 -6 -37 28 -51 29 -16 1 14 -11 26
-27 26 -35 0 -16 -16 -19 -25 -5 -3 6 -18 16 -33 24 -37 19 -98 54 -128 73
-13 9 -24 13 -24 9 0 -4 -6 -3 -12 3 -7 5 -41 22 -75 36 -35 14 -77 35 -95 46
l-33 20 38 -4 c22 -3 37 0 37 6 0 14 79 1 100 -16z m-2550 -47 c0 -6 -5 -19
-11 -30 -8 -15 -6 -31 7 -65 9 -24 20 -44 24 -44 4 0 15 20 24 45 17 44 43 62
42 28 -1 -10 4 -19 9 -20 6 -1 9 5 7 14 -3 11 1 14 13 9 9 -3 28 -6 42 -6 25
0 26 0 8 -20 -10 -11 -29 -20 -42 -20 -12 0 -23 -4 -23 -8 0 -5 -9 -20 -21
-33 -11 -13 -29 -34 -40 -47 -10 -12 -19 -26 -19 -31 0 -4 -9 -18 -19 -30 -11
-13 -22 -28 -25 -34 -3 -7 -17 2 -34 21 -29 33 -30 33 -37 12 -7 -23 7 -40 33
-40 15 0 16 -12 0 -28 -9 -9 -5 -12 20 -12 21 0 35 6 42 20 6 11 15 20 21 20
6 0 7 -4 4 -10 -3 -5 -1 -10 5 -10 6 0 15 11 20 25 5 14 12 25 16 25 8 0 -7
-134 -16 -140 -5 -3 -10 -14 -12 -25 -1 -11 -5 -22 -8 -25 -3 -3 -11 -17 -18
-33 -9 -22 -15 -25 -29 -18 -39 21 -135 41 -104 22 15 -10 4 -60 -25 -109 -3
-4 -44 19 -67 37 -18 15 -17 29 6 84 8 17 17 25 27 22 10 -3 10 -1 -2 9 -10 7
-18 18 -18 24 0 11 -23 22 -50 22 -10 0 -32 11 -48 25 -17 14 -37 25 -45 25
-15 0 -17 6 -17 70 0 41 26 115 41 115 20 0 34 -73 21 -107 -6 -16 -6 -28 -1
-28 5 0 9 7 9 15 0 14 5 17 40 19 16 1 22 62 8 81 -4 7 16 29 47 54 30 23 55
46 55 51 0 5 9 12 20 15 12 4 36 22 55 41 34 33 65 45 65 23z m2217 -31 c23
-23 33 -41 33 -62 -1 -27 -7 -34 -48 -54 -26 -12 -53 -22 -60 -22 -7 0 -33
-12 -57 -26 -24 -14 -47 -25 -50 -25 -57 8 -117 -27 -94 -55 22 -27 102 -12
122 22 4 8 24 14 43 14 19 0 43 4 53 9 10 6 23 6 31 1 12 -7 12 -13 1 -33 -10
-19 -24 -26 -55 -30 -57 -7 -129 -28 -144 -44 -7 -7 -22 -13 -31 -13 -10 0
-35 -7 -55 -15 -35 -15 -36 -15 -36 7 0 12 12 35 28 51 l27 29 -32 -6 c-17 -4
-33 -3 -36 1 -3 5 -10 44 -16 88 -14 96 -13 98 89 126 41 11 83 28 92 36 10 9
46 19 80 23 35 4 67 8 73 9 5 0 24 -13 42 -31z m232 8 c9 -11 9 -15 -1 -20 -7
-3 -4 -4 7 -1 30 7 174 -32 203 -56 14 -10 29 -19 34 -19 10 0 23 -12 46 -42
12 -15 12 -20 -1 -32 -13 -14 -18 -13 -39 7 -13 13 -53 35 -89 51 -35 15 -77
34 -94 41 -26 12 -57 24 -75 30 -20 6 -60 29 -60 35 0 23 51 28 69 6z m-2
-103 c29 -8 55 -19 59 -24 3 -5 15 -9 28 -9 13 0 43 -11 67 -24 94 -49 105
-61 72 -73 -10 -4 -29 -19 -42 -35 -13 -16 -38 -30 -58 -34 -19 -4 -37 -13
-40 -20 -3 -8 -9 -14 -15 -14 -5 0 -6 5 -3 11 10 15 -33 43 -69 43 -30 1 -31
2 -29 47 2 44 0 48 -47 88 -61 52 -65 72 -12 65 20 -3 61 -12 89 -21z m-2108
-194 c-6 -30 -18 -73 -26 -97 -9 -23 -13 -45 -10 -48 10 -10 27 6 27 25 0 11
9 29 20 42 l19 24 1 -22 c0 -35 -61 -162 -82 -169 -10 -3 -18 -14 -18 -24 0
-26 -19 -35 -36 -19 -15 16 -5 76 24 139 9 19 15 43 13 53 -1 9 5 20 13 23 9
3 16 13 16 22 0 15 43 111 48 107 1 -1 -3 -26 -9 -56z m1869 10 c-16 -11 -28
-29 -28 -40 0 -14 -13 -25 -43 -38 -23 -10 -48 -26 -56 -35 -7 -9 -21 -16 -30
-16 -9 0 -41 -9 -71 -20 -30 -11 -69 -20 -85 -20 -17 0 -36 -5 -43 -12 -9 -9
-12 -4 -12 23 0 48 22 65 106 83 82 17 157 42 199 65 25 13 58 25 85 30 3 0
-7 -9 -22 -20z m409 -118 c13 -14 23 -36 23 -49 0 -13 18 -54 40 -91 22 -37
40 -72 40 -78 0 -6 -37 -10 -102 -9 -57 1 -137 -3 -179 -8 -91 -10 -92 -9 -83
95 6 61 11 73 43 106 20 21 42 38 50 40 8 1 17 6 20 11 19 30 118 19 148 -17z
m-2100 15 c3 -3 -7 -17 -22 -32 -18 -18 -24 -29 -16 -32 7 -2 29 12 49 31 42
41 112 61 112 33 0 -34 -80 -136 -107 -136 -7 0 -13 -4 -13 -9 0 -4 11 -6 24
-4 13 3 26 0 30 -5 4 -7 -26 -94 -39 -110 -1 -1 -19 14 -39 33 -55 52 -111 47
-111 -10 0 -17 -6 -20 -35 -17 -50 4 -54 13 -29 65 16 32 34 52 57 63 33 16
62 63 62 101 0 15 -2 16 -10 3 -8 -12 -10 -11 -10 6 0 11 2 23 5 26 7 6 85 1
92 -6z m485 -82 c4 -17 17 -39 28 -49 29 -26 25 -58 -19 -165 -85 -208 -88
-212 -157 -165 -21 14 -48 28 -61 31 -13 4 -23 13 -23 22 0 21 41 134 55 152
7 8 19 33 28 56 8 22 28 68 43 101 27 59 27 59 62 54 29 -5 37 -12 44 -37z
m1253 -53 c5 -26 1 -35 -36 -68 -23 -21 -54 -45 -68 -54 -39 -23 -49 -40 -53
-83 -3 -36 -7 -41 -43 -54 -22 -8 -48 -25 -58 -38 l-18 -24 66 0 c75 0 80 -15
7 -26 -26 -3 -62 -13 -81 -20 -43 -18 -44 -18 -36 5 5 18 4 19 -25 8 -28 -11
-33 -10 -46 8 -19 25 -32 74 -45 165 -12 84 -8 91 66 112 22 7 42 15 45 20 3
4 39 14 79 23 40 8 91 24 114 35 23 10 61 19 84 20 38 0 42 -3 48 -29z m-760
-79 c-6 -5 -59 -28 -120 -51 -60 -24 -114 -48 -119 -52 -18 -16 17 -9 64 12
58 26 155 59 175 59 45 0 -9 -33 -100 -60 -22 -7 -62 -23 -90 -35 -98 -46
-123 -55 -149 -55 -19 0 -26 -5 -26 -19 0 -29 -62 -161 -75 -161 -7 0 -17 6
-23 13 -8 10 1 38 37 111 27 54 52 93 55 87 13 -20 27 -11 21 12 -4 16 1 29
17 43 39 36 314 128 333 112 6 -5 6 -11 0 -16z"/>
<path d="M4461 1746 c-6 -7 -8 -15 -6 -18 3 -3 -12 -8 -34 -12 -44 -7 -96 -34
-151 -78 -19 -15 -39 -28 -45 -28 -19 0 -88 -77 -76 -85 6 -3 8 -12 4 -18 -3
-7 3 -3 15 7 12 11 22 25 22 33 0 7 9 13 21 13 11 0 17 5 14 10 -3 6 -2 10 4
10 5 0 11 -8 14 -17 3 -14 6 -12 17 10 9 19 19 27 32 24 10 -3 39 11 70 34 29
22 58 37 64 35 15 -6 49 32 57 61 6 27 -6 38 -22 19z"/>
<path d="M1955 4272 c-16 -2 -34 -7 -40 -11 -5 -4 -34 -6 -62 -5 -40 2 -53 -1
-53 -11 0 -9 -6 -12 -15 -9 -8 4 -15 13 -15 22 0 21 -13 7 -17 -18 -2 -16 3
-20 25 -21 15 -1 31 -1 36 0 14 3 26 -22 17 -34 -5 -5 -8 -17 -8 -25 -1 -8 -4
-23 -8 -32 -5 -13 -3 -18 8 -18 9 0 17 10 19 23 2 17 11 23 36 25 17 2 32 7
32 11 0 15 -25 31 -47 31 -13 0 -23 5 -23 11 0 8 17 10 55 6 30 -3 57 -2 59 2
3 4 34 6 70 5 43 -1 72 3 83 12 17 13 17 14 1 8 -10 -3 -18 -2 -18 4 0 6 -9 8
-20 5 -11 -3 -20 0 -20 6 0 5 -6 8 -14 5 -8 -3 -23 -2 -33 3 -10 5 -31 7 -48
5z"/>
<path d="M3370 3893 c0 -5 -56 -8 -125 -8 -69 0 -125 -3 -125 -7 0 -4 -11 -3
-25 2 -15 6 -34 6 -49 0 -13 -5 -27 -6 -30 -3 -3 4 -6 2 -6 -4 0 -7 -15 -8
-41 -3 -44 8 -79 3 -79 -12 0 -5 -4 -6 -10 -3 -5 3 -10 2 -10 -4 0 -18 20 -23
26 -7 7 17 54 22 54 6 0 -5 5 -10 11 -10 5 0 7 5 4 10 -3 6 -1 10 4 10 6 0 11
-4 11 -9 0 -11 72 -2 80 10 3 5 19 4 35 0 17 -5 27 -10 23 -10 -13 -2 31 -41
46 -41 8 0 16 7 20 15 3 8 10 15 16 15 5 0 10 -7 10 -15 0 -8 -7 -15 -16 -15
-11 0 -14 -5 -10 -16 3 -9 6 -19 6 -23 0 -4 7 -8 15 -8 18 0 19 9 4 24 -7 7
-7 13 -1 17 6 3 13 2 17 -4 3 -5 11 -10 16 -10 6 0 1 14 -11 31 -12 16 -20 32
-18 35 14 13 170 24 178 12 3 -4 16 -5 28 -1 18 4 20 8 11 19 -12 15 -59 20
-59 7z"/>
<path d="M3727 3762 c-15 -3 -18 -12 -15 -45 l3 -42 -53 3 c-46 3 -56 0 -69
-18 -11 -16 -18 -18 -28 -10 -11 9 -16 6 -26 -12 -8 -14 -14 -18 -17 -10 -4
14 -22 6 -22 -11 0 -7 18 -13 48 -13 26 -1 41 0 34 3 -20 8 25 41 65 49 24 5
37 2 46 -9 7 -8 21 -19 32 -25 14 -8 16 -12 5 -12 -10 0 -7 -6 9 -19 23 -17
23 -20 8 -35 -9 -9 -14 -23 -11 -31 5 -11 -1 -15 -22 -15 -15 0 -25 -3 -21 -6
10 -10 78 6 72 17 -4 5 3 9 14 9 12 0 21 7 21 15 0 10 10 15 28 15 21 0 24 2
12 10 -8 5 -15 17 -15 27 0 16 -15 24 -72 39 -19 5 -16 34 3 34 8 0 13 4 10 9
-3 5 1 11 8 14 10 4 13 15 10 34 -7 39 -17 44 -57 35z"/>
<path d="M6632 3713 c-18 -13 -28 -14 -48 -4 -17 7 -31 8 -42 2 -15 -8 -13
-11 13 -21 19 -8 25 -14 16 -17 -7 -3 -22 -14 -32 -24 -18 -18 -18 -19 6 -25
14 -3 25 -12 25 -20 0 -8 4 -14 9 -14 6 0 6 12 1 30 -9 32 -1 44 24 34 9 -3
31 1 49 9 26 13 103 22 153 18 7 -1 14 -10 17 -21 3 -11 10 -20 17 -20 6 0 8
5 5 10 -3 6 1 13 9 16 13 5 13 8 1 20 -7 8 -21 11 -30 8 -8 -4 -23 0 -33 9
-26 23 -131 30 -160 10z"/>
<path d="M3121 3674 c-1 -17 -9 -23 -42 -28 -30 -5 -39 -10 -36 -21 3 -7 1
-15 -6 -18 -7 -2 11 -4 40 -5 49 -2 51 -1 45 20 -5 20 -4 21 11 10 9 -8 16
-17 15 -20 0 -4 0 -17 1 -30 1 -22 4 -23 73 -21 66 2 72 1 80 -20 4 -12 13
-19 18 -16 6 4 19 -2 28 -13 9 -10 33 -22 53 -26 34 -6 37 -5 35 18 0 13 -4
22 -8 20 -4 -3 -17 9 -29 26 -14 18 -29 28 -38 25 -9 -3 -29 2 -46 11 -16 8
-43 14 -60 14 -46 -3 -57 -1 -50 9 3 5 1 13 -5 16 -8 5 -8 11 0 20 14 16 -6
25 -42 18 -20 -4 -27 0 -31 14 -4 15 -5 15 -6 -3z"/>
<path d="M2740 3593 c-8 -3 -20 -11 -26 -19 -6 -7 -27 -14 -47 -16 -21 -1 -36
-7 -34 -13 2 -5 19 -9 36 -7 18 1 40 -2 49 -8 10 -5 12 -10 5 -10 -25 0 -13
-30 12 -30 16 0 25 -6 25 -15 0 -13 19 -20 44 -16 5 1 31 -3 58 -9 27 -5 53
-8 58 -5 4 3 4 20 0 39 -5 24 -4 37 4 40 6 2 4 5 -4 5 -9 1 -21 -4 -27 -10
-13 -13 -33 -4 -33 17 0 17 -14 18 -41 2 -17 -11 -22 -10 -39 12 -11 14 -18
31 -15 38 5 13 0 14 -25 5z"/>
<path d="M4104 3540 c-12 -4 -24 -15 -27 -23 -4 -11 -18 -14 -54 -12 -26 2
-52 1 -56 -2 -5 -3 -29 -6 -53 -7 -41 -2 -48 3 -45 30 1 14 -42 11 -46 -3 -2
-6 4 -13 13 -15 10 -1 18 -13 19 -25 1 -12 -2 -20 -7 -17 -15 9 -8 -6 11 -25
20 -20 53 -31 121 -37 l45 -5 -23 20 c-13 11 -30 17 -38 14 -14 -5 -14 -3 -3
16 8 11 21 21 31 21 9 0 18 5 20 11 5 14 78 -15 78 -30 0 -6 6 -8 14 -5 7 3
20 -2 29 -10 25 -25 28 -19 21 37 -4 28 -7 58 -7 65 0 14 -13 15 -43 2z"/>
<path d="M6902 2713 c-40 -5 -38 -27 2 -31 18 -2 26 -8 22 -17 -2 -7 2 -19 10
-25 8 -7 14 -27 14 -46 0 -18 4 -35 8 -38 12 -7 53 24 47 35 -4 5 1 9 9 9 8 0
19 -7 24 -16 8 -15 11 -15 36 1 15 10 46 19 69 19 38 1 42 4 45 27 3 23 0 26
-21 22 -14 -3 -29 2 -36 11 -8 9 -24 16 -36 16 -14 0 -25 7 -28 20 -3 13 -13
20 -29 20 -18 0 -20 -2 -8 -10 12 -7 12 -12 2 -22 -10 -10 -14 -9 -18 8 -6 22
-35 26 -112 17z"/>
</g>
</svg>
